G04 #@! TF.GenerationSoftware,KiCad,Pcbnew,9.0.0*
G04 #@! TF.CreationDate,2025-03-23T20:11:35+01:00*
G04 #@! TF.ProjectId,PCB Board,50434220-426f-4617-9264-2e6b69636164,rev?*
G04 #@! TF.SameCoordinates,Original*
G04 #@! TF.FileFunction,Legend,Bot*
G04 #@! TF.FilePolarity,Positive*
%FSLAX46Y46*%
G04 Gerber Fmt 4.6, Leading zero omitted, Abs format (unit mm)*
G04 Created by KiCad (PCBNEW 9.0.0) date 2025-03-23 20:11:35*
%MOMM*%
%LPD*%
G01*
G04 APERTURE LIST*
G04 Aperture macros list*
%AMRoundRect*
0 Rectangle with rounded corners*
0 $1 Rounding radius*
0 $2 $3 $4 $5 $6 $7 $8 $9 X,Y pos of 4 corners*
0 Add a 4 corners polygon primitive as box body*
4,1,4,$2,$3,$4,$5,$6,$7,$8,$9,$2,$3,0*
0 Add four circle primitives for the rounded corners*
1,1,$1+$1,$2,$3*
1,1,$1+$1,$4,$5*
1,1,$1+$1,$6,$7*
1,1,$1+$1,$8,$9*
0 Add four rect primitives between the rounded corners*
20,1,$1+$1,$2,$3,$4,$5,0*
20,1,$1+$1,$4,$5,$6,$7,0*
20,1,$1+$1,$6,$7,$8,$9,0*
20,1,$1+$1,$8,$9,$2,$3,0*%
%AMHorizOval*
0 Thick line with rounded ends*
0 $1 width*
0 $2 $3 position (X,Y) of the first rounded end (center of the circle)*
0 $4 $5 position (X,Y) of the second rounded end (center of the circle)*
0 Add line between two ends*
20,1,$1,$2,$3,$4,$5,0*
0 Add two circle primitives to create the rounded ends*
1,1,$1,$2,$3*
1,1,$1,$4,$5*%
%AMRotRect*
0 Rectangle, with rotation*
0 The origin of the aperture is its center*
0 $1 length*
0 $2 width*
0 $3 Rotation angle, in degrees counterclockwise*
0 Add horizontal line*
21,1,$1,$2,0,0,$3*%
G04 Aperture macros list end*
%ADD10C,3.600000*%
%ADD11C,5.600000*%
%ADD12RoundRect,0.250000X0.689429X0.194454X0.194454X0.689429X-0.689429X-0.194454X-0.194454X-0.689429X0*%
%ADD13HorizOval,1.200000X0.194454X0.194454X-0.194454X-0.194454X0*%
%ADD14HorizOval,2.200000X-0.475380X0.443299X0.475380X-0.443299X0*%
%ADD15RotRect,1.500000X2.500000X47.000000*%
%ADD16HorizOval,1.500000X-0.365677X0.340999X0.365677X-0.340999X0*%
%ADD17C,0.650000*%
%ADD18HorizOval,1.000000X0.388909X0.388909X-0.388909X-0.388909X0*%
%ADD19HorizOval,1.000000X0.282843X0.282843X-0.282843X-0.282843X0*%
%ADD20C,0.600000*%
G04 APERTURE END LIST*
%LPC*%
D10*
X31100000Y-79900000D03*
D11*
X31100000Y-79900000D03*
D12*
X96514214Y-81814214D03*
D13*
X95100000Y-80400000D03*
D10*
X82100000Y-96900000D03*
D11*
X82100000Y-96900000D03*
D14*
X90037862Y-92305900D03*
X95630248Y-86308800D03*
D15*
X91470058Y-90770058D03*
D16*
X92834054Y-89307349D03*
X94198051Y-87844643D03*
D17*
X92801525Y-40285552D03*
X88714448Y-36198475D03*
D18*
X93459135Y-41650268D03*
D19*
X96414841Y-38694562D03*
D18*
X87349732Y-35540865D03*
D19*
X90305438Y-32585159D03*
D10*
X53600000Y-27900000D03*
D11*
X53600000Y-27900000D03*
D20*
X82100000Y-50400000D03*
X59100000Y-42400000D03*
X75600000Y-81400000D03*
X74100000Y-37400000D03*
X73100000Y-41900000D03*
X38600000Y-86900000D03*
X48100000Y-61900000D03*
X72100000Y-94900000D03*
X58850000Y-24650000D03*
X88600000Y-29400000D03*
X83600000Y-94400000D03*
X101600000Y-52400000D03*
X53600000Y-60900000D03*
X84600000Y-31900000D03*
X76432216Y-62623429D03*
X41600000Y-64900000D03*
X81100000Y-27400000D03*
X26600000Y-54400000D03*
X52600000Y-60400000D03*
X39100000Y-39900000D03*
X55643750Y-72856250D03*
X79100000Y-58400000D03*
X49600000Y-57900000D03*
X51130000Y-71940000D03*
X77600000Y-83900000D03*
X71600000Y-84900000D03*
X101600000Y-55400000D03*
X68100000Y-74400000D03*
X82600000Y-91900000D03*
X99600000Y-72400000D03*
X73600000Y-82900000D03*
X71600000Y-96900000D03*
X70100000Y-72900000D03*
X75600000Y-75900000D03*
X51100000Y-63400000D03*
X85600000Y-66900000D03*
X97600000Y-41400000D03*
X87100000Y-31900000D03*
X97600000Y-43900000D03*
X80100000Y-29900000D03*
X84100000Y-75900000D03*
X83100000Y-55400000D03*
X79600000Y-81400000D03*
X78100000Y-64900000D03*
X80100000Y-64900000D03*
X88100000Y-40300000D03*
X85100000Y-64900000D03*
X89100000Y-41900000D03*
X80100000Y-63900000D03*
X86100000Y-39900000D03*
X78100000Y-63900000D03*
X85100000Y-60400000D03*
X85100000Y-38900000D03*
X82600000Y-34900000D03*
X90002276Y-41100000D03*
X94100000Y-43400000D03*
X43216322Y-70822633D03*
X53100000Y-64400000D03*
X97100000Y-69900000D03*
X69100000Y-95900000D03*
X80600000Y-32900000D03*
X82600000Y-69400000D03*
X31100000Y-53400000D03*
X53600000Y-69400000D03*
X46600000Y-77900000D03*
X43100000Y-74400000D03*
X55100000Y-86400000D03*
X54600000Y-92400000D03*
X45600000Y-60400000D03*
X47100000Y-66400000D03*
X86100000Y-91900000D03*
%LPD*%
M02*
