G04 #@! TF.GenerationSoftware,KiCad,Pcbnew,9.0.0*
G04 #@! TF.CreationDate,2025-03-23T20:11:35+01:00*
G04 #@! TF.ProjectId,PCB Board,50434220-426f-4617-9264-2e6b69636164,rev?*
G04 #@! TF.SameCoordinates,Original*
G04 #@! TF.FileFunction,Paste,Top*
G04 #@! TF.FilePolarity,Positive*
%FSLAX46Y46*%
G04 Gerber Fmt 4.6, Leading zero omitted, Abs format (unit mm)*
G04 Created by KiCad (PCBNEW 9.0.0) date 2025-03-23 20:11:35*
%MOMM*%
%LPD*%
G01*
G04 APERTURE LIST*
G04 Aperture macros list*
%AMRoundRect*
0 Rectangle with rounded corners*
0 $1 Rounding radius*
0 $2 $3 $4 $5 $6 $7 $8 $9 X,Y pos of 4 corners*
0 Add a 4 corners polygon primitive as box body*
4,1,4,$2,$3,$4,$5,$6,$7,$8,$9,$2,$3,0*
0 Add four circle primitives for the rounded corners*
1,1,$1+$1,$2,$3*
1,1,$1+$1,$4,$5*
1,1,$1+$1,$6,$7*
1,1,$1+$1,$8,$9*
0 Add four rect primitives between the rounded corners*
20,1,$1+$1,$2,$3,$4,$5,0*
20,1,$1+$1,$4,$5,$6,$7,0*
20,1,$1+$1,$6,$7,$8,$9,0*
20,1,$1+$1,$8,$9,$2,$3,0*%
%AMHorizOval*
0 Thick line with rounded ends*
0 $1 width*
0 $2 $3 position (X,Y) of the first rounded end (center of the circle)*
0 $4 $5 position (X,Y) of the second rounded end (center of the circle)*
0 Add line between two ends*
20,1,$1,$2,$3,$4,$5,0*
0 Add two circle primitives to create the rounded ends*
1,1,$1,$2,$3*
1,1,$1,$4,$5*%
%AMRotRect*
0 Rectangle, with rotation*
0 The origin of the aperture is its center*
0 $1 length*
0 $2 width*
0 $3 Rotation angle, in degrees counterclockwise*
0 Add horizontal line*
21,1,$1,$2,0,0,$3*%
G04 Aperture macros list end*
%ADD10RoundRect,0.140000X0.040237X-0.216520X0.220218X-0.002028X-0.040237X0.216520X-0.220218X0.002028X0*%
%ADD11RoundRect,0.135000X0.035355X-0.226274X0.226274X-0.035355X-0.035355X0.226274X-0.226274X0.035355X0*%
%ADD12RoundRect,0.135000X0.185000X-0.135000X0.185000X0.135000X-0.185000X0.135000X-0.185000X-0.135000X0*%
%ADD13RoundRect,0.140000X0.108353X0.191728X-0.167393X0.143107X-0.108353X-0.191728X0.167393X-0.143107X0*%
%ADD14RotRect,1.500000X1.000000X30.000000*%
%ADD15RoundRect,0.135000X-0.035355X0.226274X-0.226274X0.035355X0.035355X-0.226274X0.226274X-0.035355X0*%
%ADD16R,1.300000X1.550000*%
%ADD17RoundRect,0.135000X0.135000X0.185000X-0.135000X0.185000X-0.135000X-0.185000X0.135000X-0.185000X0*%
%ADD18RoundRect,0.250000X0.650000X-1.000000X0.650000X1.000000X-0.650000X1.000000X-0.650000X-1.000000X0*%
%ADD19RoundRect,0.135000X-0.185000X0.135000X-0.185000X-0.135000X0.185000X-0.135000X0.185000X0.135000X0*%
%ADD20RoundRect,0.140000X0.170000X-0.140000X0.170000X0.140000X-0.170000X0.140000X-0.170000X-0.140000X0*%
%ADD21RoundRect,0.140000X-0.167393X-0.143107X0.108353X-0.191728X0.167393X0.143107X-0.108353X0.191728X0*%
%ADD22RotRect,1.500000X1.000000X150.000000*%
%ADD23RotRect,1.500000X1.000000X130.000000*%
%ADD24RoundRect,0.150000X-0.587500X-0.150000X0.587500X-0.150000X0.587500X0.150000X-0.587500X0.150000X0*%
%ADD25RoundRect,0.140000X-0.170000X0.140000X-0.170000X-0.140000X0.170000X-0.140000X0.170000X0.140000X0*%
%ADD26RoundRect,0.140000X0.167393X0.143107X-0.108353X0.191728X-0.167393X-0.143107X0.108353X-0.191728X0*%
%ADD27RoundRect,0.135000X-0.135000X-0.185000X0.135000X-0.185000X0.135000X0.185000X-0.135000X0.185000X0*%
%ADD28RotRect,1.500000X1.000000X230.000000*%
%ADD29RotRect,1.500000X1.000000X110.000000*%
%ADD30RotRect,1.500000X1.000000X290.000000*%
%ADD31RotRect,1.550000X1.300000X220.000000*%
%ADD32RotRect,1.500000X1.000000X170.000000*%
%ADD33R,0.700000X0.700000*%
%ADD34R,1.500000X0.900000*%
%ADD35RotRect,1.500000X1.000000X250.000000*%
%ADD36RotRect,1.500000X1.000000X50.000000*%
%ADD37RoundRect,0.140000X-0.220218X-0.002028X-0.040237X-0.216520X0.220218X0.002028X0.040237X0.216520X0*%
%ADD38R,1.550000X1.300000*%
%ADD39RoundRect,0.150000X-0.150000X0.512500X-0.150000X-0.512500X0.150000X-0.512500X0.150000X0.512500X0*%
%ADD40RoundRect,0.140000X-0.140000X-0.170000X0.140000X-0.170000X0.140000X0.170000X-0.140000X0.170000X0*%
%ADD41RoundRect,0.140000X-0.040237X0.216520X-0.220218X0.002028X0.040237X-0.216520X0.220218X-0.002028X0*%
%ADD42RoundRect,0.150000X-0.512500X-0.150000X0.512500X-0.150000X0.512500X0.150000X-0.512500X0.150000X0*%
%ADD43RoundRect,0.147500X0.017678X-0.226274X0.226274X-0.017678X-0.017678X0.226274X-0.226274X0.017678X0*%
%ADD44RoundRect,0.140000X-0.219557X0.017173X-0.058955X-0.212189X0.219557X-0.017173X0.058955X0.212189X0*%
%ADD45RotRect,1.500000X1.000000X10.000000*%
%ADD46RoundRect,0.150000X0.406586X0.194454X0.194454X0.406586X-0.406586X-0.194454X-0.194454X-0.406586X0*%
%ADD47RoundRect,0.075000X0.406586X0.300520X0.300520X0.406586X-0.406586X-0.300520X-0.300520X-0.406586X0*%
%ADD48HorizOval,1.000000X0.388909X0.388909X-0.388909X-0.388909X0*%
%ADD49HorizOval,1.000000X0.282843X0.282843X-0.282843X-0.282843X0*%
%ADD50RotRect,1.500000X1.000000X190.000000*%
%ADD51RotRect,1.500000X1.000000X350.000000*%
%ADD52RoundRect,0.150000X-0.150000X0.587500X-0.150000X-0.587500X0.150000X-0.587500X0.150000X0.587500X0*%
%ADD53RoundRect,0.140000X0.140000X0.170000X-0.140000X0.170000X-0.140000X-0.170000X0.140000X-0.170000X0*%
%ADD54RoundRect,0.140000X0.220218X0.002028X0.040237X0.216520X-0.220218X-0.002028X-0.040237X-0.216520X0*%
%ADD55RotRect,1.500000X1.000000X70.000000*%
%ADD56RotRect,1.500000X1.000000X210.000000*%
%ADD57R,1.000000X1.500000*%
%ADD58RotRect,1.500000X1.000000X330.000000*%
%ADD59RotRect,1.550000X1.300000X65.000000*%
%ADD60RoundRect,0.140000X-0.108353X-0.191728X0.167393X-0.143107X0.108353X0.191728X-0.167393X0.143107X0*%
%ADD61RotRect,1.500000X1.000000X310.000000*%
G04 APERTURE END LIST*
D10*
X46293409Y-85716945D03*
X46910485Y-84981543D03*
D11*
X94878752Y-42621248D03*
X95600000Y-41900000D03*
D12*
X79090000Y-62410000D03*
X79090000Y-61390000D03*
D13*
X92647324Y-58954500D03*
X91701910Y-59121202D03*
D14*
X53521762Y-39811930D03*
X51921762Y-37040648D03*
X47678238Y-39490648D03*
X49278238Y-42261930D03*
D15*
X84960624Y-34539376D03*
X84239376Y-35260624D03*
D16*
X25350000Y-67880000D03*
X25350000Y-59920000D03*
X29850000Y-67880000D03*
X29850000Y-59920000D03*
D17*
X77110000Y-60900000D03*
X76090000Y-60900000D03*
D18*
X65600000Y-81900000D03*
X65600000Y-77900000D03*
D19*
X99100000Y-44890000D03*
X99100000Y-45910000D03*
D20*
X64600000Y-92380000D03*
X64600000Y-91420000D03*
D21*
X36552675Y-58954500D03*
X37498091Y-59121202D03*
D22*
X49278238Y-85538070D03*
X47678238Y-88309352D03*
X51921762Y-90759352D03*
X53521762Y-87988070D03*
D23*
X42801597Y-78992784D03*
X40350255Y-81049704D03*
X43499915Y-84803322D03*
X45951257Y-82746402D03*
D24*
X43225000Y-67450000D03*
X43225000Y-69350000D03*
X45100000Y-68400000D03*
D25*
X64620000Y-34920000D03*
X64620000Y-35880000D03*
D19*
X51100000Y-60890000D03*
X51100000Y-61910000D03*
D26*
X92647325Y-68845500D03*
X91701909Y-68678798D03*
D27*
X51090000Y-66900000D03*
X52110000Y-66900000D03*
D28*
X83248743Y-82746402D03*
X85700085Y-84803322D03*
X88849745Y-81049704D03*
X86398403Y-78992784D03*
D29*
X38954166Y-70627084D03*
X35947149Y-71721550D03*
X37623048Y-76326044D03*
X40630065Y-75231578D03*
D30*
X90245834Y-57172916D03*
X93252851Y-56078450D03*
X91576952Y-51473956D03*
X88569935Y-52568422D03*
D12*
X47100000Y-69410000D03*
X47100000Y-68390000D03*
D31*
X48095129Y-32900000D03*
X41997415Y-38016590D03*
X45202585Y-29452800D03*
X39104871Y-34569390D03*
D16*
X103850000Y-59920000D03*
X103850000Y-67880000D03*
X99350000Y-59920000D03*
X99350000Y-67880000D03*
D32*
X57602909Y-89473486D03*
X57047235Y-92624872D03*
X61872793Y-93475748D03*
X62428467Y-90324362D03*
D33*
X64460000Y-63000000D03*
X64460000Y-64100000D03*
X64460000Y-65200000D03*
X65560000Y-63000000D03*
X65560000Y-64100000D03*
X65560000Y-65200000D03*
X66660000Y-63000000D03*
X66660000Y-64100000D03*
X66660000Y-65200000D03*
D34*
X55850000Y-57900000D03*
X55850000Y-59400000D03*
X55850000Y-60900000D03*
X55850000Y-62400000D03*
X55850000Y-63900000D03*
X55850000Y-65400000D03*
X55850000Y-66900000D03*
X55850000Y-68400000D03*
X55850000Y-69900000D03*
X73350000Y-69900000D03*
X73350000Y-68400000D03*
X73350000Y-66900000D03*
X73350000Y-65400000D03*
X73350000Y-63900000D03*
X73350000Y-62400000D03*
X73350000Y-60900000D03*
X73350000Y-59400000D03*
X73350000Y-57900000D03*
D35*
X88569935Y-75231579D03*
X91576951Y-76326043D03*
X93252851Y-71721549D03*
X90245835Y-70627085D03*
D24*
X71100000Y-80000000D03*
X71100000Y-81900000D03*
X72975000Y-80950000D03*
D17*
X52110000Y-58900000D03*
X51090000Y-58900000D03*
D36*
X45951257Y-45053598D03*
X43499915Y-42996678D03*
X40350255Y-46750296D03*
X42801597Y-48807216D03*
D37*
X46293409Y-42083055D03*
X46910485Y-42818457D03*
D38*
X68580000Y-103150000D03*
X60620000Y-103150000D03*
X68580000Y-98650000D03*
X60620000Y-98650000D03*
D39*
X79600000Y-75125000D03*
X78650000Y-75125000D03*
X77700000Y-75125000D03*
X77700000Y-77400000D03*
X78650000Y-77400000D03*
X79600000Y-77400000D03*
D40*
X61140000Y-75900000D03*
X62100000Y-75900000D03*
D12*
X49600000Y-61910000D03*
X49600000Y-60890000D03*
D41*
X82906591Y-42083055D03*
X82289515Y-42818457D03*
D20*
X54100000Y-76880000D03*
X54100000Y-75920000D03*
D42*
X56462500Y-75950000D03*
X56462500Y-76900000D03*
X56462500Y-77850000D03*
X58737500Y-77850000D03*
X58737500Y-75950000D03*
D43*
X86257053Y-30742947D03*
X86942947Y-30057053D03*
D44*
X36824683Y-37506807D03*
X37375317Y-38293193D03*
D45*
X62428467Y-37475637D03*
X61872793Y-34324253D03*
X57047235Y-35175129D03*
X57602909Y-38326513D03*
D12*
X51100000Y-76910000D03*
X51100000Y-75890000D03*
D46*
X92260589Y-41264895D03*
X91694903Y-40699209D03*
D47*
X90881731Y-39886036D03*
X90174624Y-39178930D03*
X89821070Y-38825376D03*
X89113964Y-38118269D03*
D46*
X88300791Y-37305097D03*
X87735105Y-36739411D03*
X87735105Y-36739411D03*
X88300791Y-37305097D03*
D47*
X88760410Y-37764716D03*
X89467517Y-38471823D03*
X90528177Y-39532483D03*
X91235284Y-40239590D03*
D46*
X91694903Y-40699209D03*
X92260589Y-41264895D03*
D48*
X93459135Y-41650268D03*
D49*
X96414841Y-38694562D03*
D48*
X87349732Y-35540865D03*
D49*
X90305438Y-32585159D03*
D17*
X81100000Y-78900000D03*
X80080000Y-78900000D03*
D40*
X77640000Y-73400000D03*
X78600000Y-73400000D03*
D19*
X75600000Y-93890000D03*
X75600000Y-94910000D03*
D50*
X66771533Y-90324363D03*
X67327207Y-93475747D03*
X72152765Y-92624871D03*
X71597091Y-89473487D03*
D51*
X71597091Y-38326513D03*
X72152765Y-35175129D03*
X67327207Y-34324253D03*
X66771533Y-37475637D03*
D27*
X51080000Y-65400000D03*
X52100000Y-65400000D03*
D52*
X75600000Y-96962500D03*
X73700000Y-96962500D03*
X74650000Y-98837500D03*
D53*
X77600000Y-78900000D03*
X76640000Y-78900000D03*
D54*
X82906591Y-85716945D03*
X82289515Y-84981543D03*
D55*
X40630065Y-52568421D03*
X37623048Y-51473957D03*
X35947149Y-56078451D03*
X38954166Y-57172915D03*
D56*
X75678238Y-87988070D03*
X77278238Y-90759352D03*
X81521762Y-88309352D03*
X79921762Y-85538070D03*
D57*
X38200000Y-61450000D03*
X35000000Y-61450000D03*
X35000000Y-66350000D03*
X38200000Y-66350000D03*
D17*
X44100000Y-60400000D03*
X43080000Y-60400000D03*
D12*
X71100000Y-76410000D03*
X71100000Y-75390000D03*
D43*
X98257053Y-40242947D03*
X98942947Y-39557053D03*
D57*
X91000000Y-66350000D03*
X94200000Y-66350000D03*
X94200000Y-61450000D03*
X91000000Y-61450000D03*
D58*
X79921762Y-42261930D03*
X81521762Y-39490648D03*
X77278238Y-37040648D03*
X75678238Y-39811930D03*
D59*
X28657576Y-48712428D03*
X32021616Y-41498218D03*
X32735960Y-50614210D03*
X36100000Y-43400000D03*
D60*
X36552675Y-68845500D03*
X37498091Y-68678798D03*
D38*
X60620000Y-24650000D03*
X68580000Y-24650000D03*
X60620000Y-29150000D03*
X68580000Y-29150000D03*
D61*
X86398403Y-48807216D03*
X88849745Y-46750296D03*
X85700085Y-42996678D03*
X83248743Y-45053598D03*
M02*
