%TF.GenerationSoftware,KiCad,Pcbnew,9.0.0*%
%TF.CreationDate,2025-03-23T20:14:32+01:00*%
%TF.ProjectId,PCB Board,50434220-426f-4617-9264-2e6b69636164,rev?*%
%TF.SameCoordinates,Original*%
%TF.FileFunction,Drillmap*%
%TF.FilePolarity,Positive*%
%FSLAX45Y45*%
G04 Gerber Fmt 4.5, Leading zero omitted, Abs format (unit mm)*
G04 Created by KiCad (PCBNEW 9.0.0) date 2025-03-23 20:14:32*
%MOMM*%
%LPD*%
G01*
G04 APERTURE LIST*
%ADD10C,0.050000*%
%ADD11C,0.200000*%
%ADD12C,0.100000*%
%ADD13C,0.150000*%
%ADD14C,0.320000*%
G04 APERTURE END LIST*
D10*
X3323000Y-9330940D02*
G75*
G02*
X4618781Y-10275861I603445J-533409D01*
G01*
X3322907Y-9330858D02*
G75*
G02*
X10725463Y-6933902I3137093J2940858D01*
G01*
X8720538Y-10047863D02*
G75*
G02*
X4618781Y-10275860I-2260538J3657863D01*
G01*
X10258600Y-8405109D02*
X8720537Y-10047863D01*
X10472927Y-7934812D02*
G75*
G02*
X10725463Y-6933902I156410J492850D01*
G01*
X10472927Y-7934812D02*
G75*
G02*
X10258599Y-8405109I-4012937J1544823D01*
G01*
D11*
D12*
X6436000Y-6345000D02*
X6456000Y-6365000D01*
X6456000Y-6345000D02*
X6436000Y-6365000D01*
X6436000Y-6455000D02*
X6456000Y-6475000D01*
X6456000Y-6455000D02*
X6436000Y-6475000D01*
X6491000Y-6290000D02*
X6511000Y-6310000D01*
X6511000Y-6290000D02*
X6491000Y-6310000D01*
X6491000Y-6400000D02*
X6511000Y-6420000D01*
X6511000Y-6400000D02*
X6491000Y-6420000D01*
X6491000Y-6510000D02*
X6511000Y-6530000D01*
X6511000Y-6510000D02*
X6491000Y-6530000D01*
X6546000Y-6345000D02*
X6566000Y-6365000D01*
X6566000Y-6345000D02*
X6546000Y-6365000D01*
X6546000Y-6455000D02*
X6566000Y-6475000D01*
X6566000Y-6455000D02*
X6546000Y-6475000D01*
X6601000Y-6290000D02*
X6621000Y-6310000D01*
X6621000Y-6290000D02*
X6601000Y-6310000D01*
X6601000Y-6400000D02*
X6621000Y-6420000D01*
X6621000Y-6400000D02*
X6601000Y-6420000D01*
X6601000Y-6510000D02*
X6621000Y-6530000D01*
X6621000Y-6510000D02*
X6601000Y-6530000D01*
X6656000Y-6345000D02*
X6676000Y-6365000D01*
X6676000Y-6345000D02*
X6656000Y-6365000D01*
X6656000Y-6455000D02*
X6676000Y-6475000D01*
X6676000Y-6455000D02*
X6656000Y-6475000D01*
X2675000Y-5440000D02*
G75*
G02*
X2645000Y-5440000I-15000J0D01*
G01*
X2645000Y-5440000D02*
G75*
G02*
X2675000Y-5440000I15000J0D01*
G01*
X3125000Y-5340000D02*
G75*
G02*
X3095000Y-5340000I-15000J0D01*
G01*
X3095000Y-5340000D02*
G75*
G02*
X3125000Y-5340000I15000J0D01*
G01*
X3875000Y-8690000D02*
G75*
G02*
X3845000Y-8690000I-15000J0D01*
G01*
X3845000Y-8690000D02*
G75*
G02*
X3875000Y-8690000I15000J0D01*
G01*
X3925000Y-3990000D02*
G75*
G02*
X3895000Y-3990000I-15000J0D01*
G01*
X3895000Y-3990000D02*
G75*
G02*
X3925000Y-3990000I15000J0D01*
G01*
X4175000Y-6490000D02*
G75*
G02*
X4145000Y-6490000I-15000J0D01*
G01*
X4145000Y-6490000D02*
G75*
G02*
X4175000Y-6490000I15000J0D01*
G01*
X4325000Y-7440000D02*
G75*
G02*
X4295000Y-7440000I-15000J0D01*
G01*
X4295000Y-7440000D02*
G75*
G02*
X4325000Y-7440000I15000J0D01*
G01*
X4336632Y-7082263D02*
G75*
G02*
X4306632Y-7082263I-15000J0D01*
G01*
X4306632Y-7082263D02*
G75*
G02*
X4336632Y-7082263I15000J0D01*
G01*
X4575000Y-6040000D02*
G75*
G02*
X4545000Y-6040000I-15000J0D01*
G01*
X4545000Y-6040000D02*
G75*
G02*
X4575000Y-6040000I15000J0D01*
G01*
X4675000Y-7790000D02*
G75*
G02*
X4645000Y-7790000I-15000J0D01*
G01*
X4645000Y-7790000D02*
G75*
G02*
X4675000Y-7790000I15000J0D01*
G01*
X4725000Y-6640000D02*
G75*
G02*
X4695000Y-6640000I-15000J0D01*
G01*
X4695000Y-6640000D02*
G75*
G02*
X4725000Y-6640000I15000J0D01*
G01*
X4825000Y-6190000D02*
G75*
G02*
X4795000Y-6190000I-15000J0D01*
G01*
X4795000Y-6190000D02*
G75*
G02*
X4825000Y-6190000I15000J0D01*
G01*
X4975000Y-5790000D02*
G75*
G02*
X4945000Y-5790000I-15000J0D01*
G01*
X4945000Y-5790000D02*
G75*
G02*
X4975000Y-5790000I15000J0D01*
G01*
X5125000Y-6340000D02*
G75*
G02*
X5095000Y-6340000I-15000J0D01*
G01*
X5095000Y-6340000D02*
G75*
G02*
X5125000Y-6340000I15000J0D01*
G01*
X5128000Y-7194000D02*
G75*
G02*
X5098000Y-7194000I-15000J0D01*
G01*
X5098000Y-7194000D02*
G75*
G02*
X5128000Y-7194000I15000J0D01*
G01*
X5275000Y-6040000D02*
G75*
G02*
X5245000Y-6040000I-15000J0D01*
G01*
X5245000Y-6040000D02*
G75*
G02*
X5275000Y-6040000I15000J0D01*
G01*
X5325000Y-6440000D02*
G75*
G02*
X5295000Y-6440000I-15000J0D01*
G01*
X5295000Y-6440000D02*
G75*
G02*
X5325000Y-6440000I15000J0D01*
G01*
X5375000Y-6090000D02*
G75*
G02*
X5345000Y-6090000I-15000J0D01*
G01*
X5345000Y-6090000D02*
G75*
G02*
X5375000Y-6090000I15000J0D01*
G01*
X5375000Y-6940000D02*
G75*
G02*
X5345000Y-6940000I-15000J0D01*
G01*
X5345000Y-6940000D02*
G75*
G02*
X5375000Y-6940000I15000J0D01*
G01*
X5475000Y-9240000D02*
G75*
G02*
X5445000Y-9240000I-15000J0D01*
G01*
X5445000Y-9240000D02*
G75*
G02*
X5475000Y-9240000I15000J0D01*
G01*
X5525000Y-8640000D02*
G75*
G02*
X5495000Y-8640000I-15000J0D01*
G01*
X5495000Y-8640000D02*
G75*
G02*
X5525000Y-8640000I15000J0D01*
G01*
X5579375Y-7285625D02*
G75*
G02*
X5549375Y-7285625I-15000J0D01*
G01*
X5549375Y-7285625D02*
G75*
G02*
X5579375Y-7285625I15000J0D01*
G01*
X5900000Y-2465000D02*
G75*
G02*
X5870000Y-2465000I-15000J0D01*
G01*
X5870000Y-2465000D02*
G75*
G02*
X5900000Y-2465000I15000J0D01*
G01*
X5925000Y-4240000D02*
G75*
G02*
X5895000Y-4240000I-15000J0D01*
G01*
X5895000Y-4240000D02*
G75*
G02*
X5925000Y-4240000I15000J0D01*
G01*
X6825000Y-7440000D02*
G75*
G02*
X6795000Y-7440000I-15000J0D01*
G01*
X6795000Y-7440000D02*
G75*
G02*
X6825000Y-7440000I15000J0D01*
G01*
X6925000Y-9590000D02*
G75*
G02*
X6895000Y-9590000I-15000J0D01*
G01*
X6895000Y-9590000D02*
G75*
G02*
X6925000Y-9590000I15000J0D01*
G01*
X7025000Y-7290000D02*
G75*
G02*
X6995000Y-7290000I-15000J0D01*
G01*
X6995000Y-7290000D02*
G75*
G02*
X7025000Y-7290000I15000J0D01*
G01*
X7175000Y-8490000D02*
G75*
G02*
X7145000Y-8490000I-15000J0D01*
G01*
X7145000Y-8490000D02*
G75*
G02*
X7175000Y-8490000I15000J0D01*
G01*
X7175000Y-9690000D02*
G75*
G02*
X7145000Y-9690000I-15000J0D01*
G01*
X7145000Y-9690000D02*
G75*
G02*
X7175000Y-9690000I15000J0D01*
G01*
X7225000Y-9490000D02*
G75*
G02*
X7195000Y-9490000I-15000J0D01*
G01*
X7195000Y-9490000D02*
G75*
G02*
X7225000Y-9490000I15000J0D01*
G01*
X7325000Y-4190000D02*
G75*
G02*
X7295000Y-4190000I-15000J0D01*
G01*
X7295000Y-4190000D02*
G75*
G02*
X7325000Y-4190000I15000J0D01*
G01*
X7375000Y-8290000D02*
G75*
G02*
X7345000Y-8290000I-15000J0D01*
G01*
X7345000Y-8290000D02*
G75*
G02*
X7375000Y-8290000I15000J0D01*
G01*
X7425000Y-3740000D02*
G75*
G02*
X7395000Y-3740000I-15000J0D01*
G01*
X7395000Y-3740000D02*
G75*
G02*
X7425000Y-3740000I15000J0D01*
G01*
X7575000Y-7590000D02*
G75*
G02*
X7545000Y-7590000I-15000J0D01*
G01*
X7545000Y-7590000D02*
G75*
G02*
X7575000Y-7590000I15000J0D01*
G01*
X7575000Y-8140000D02*
G75*
G02*
X7545000Y-8140000I-15000J0D01*
G01*
X7545000Y-8140000D02*
G75*
G02*
X7575000Y-8140000I15000J0D01*
G01*
X7658222Y-6262343D02*
G75*
G02*
X7628222Y-6262343I-15000J0D01*
G01*
X7628222Y-6262343D02*
G75*
G02*
X7658222Y-6262343I15000J0D01*
G01*
X7775000Y-8390000D02*
G75*
G02*
X7745000Y-8390000I-15000J0D01*
G01*
X7745000Y-8390000D02*
G75*
G02*
X7775000Y-8390000I15000J0D01*
G01*
X7825000Y-6390000D02*
G75*
G02*
X7795000Y-6390000I-15000J0D01*
G01*
X7795000Y-6390000D02*
G75*
G02*
X7825000Y-6390000I15000J0D01*
G01*
X7825000Y-6490000D02*
G75*
G02*
X7795000Y-6490000I-15000J0D01*
G01*
X7795000Y-6490000D02*
G75*
G02*
X7825000Y-6490000I15000J0D01*
G01*
X7925000Y-5840000D02*
G75*
G02*
X7895000Y-5840000I-15000J0D01*
G01*
X7895000Y-5840000D02*
G75*
G02*
X7925000Y-5840000I15000J0D01*
G01*
X7975000Y-8140000D02*
G75*
G02*
X7945000Y-8140000I-15000J0D01*
G01*
X7945000Y-8140000D02*
G75*
G02*
X7975000Y-8140000I15000J0D01*
G01*
X8025000Y-2990000D02*
G75*
G02*
X7995000Y-2990000I-15000J0D01*
G01*
X7995000Y-2990000D02*
G75*
G02*
X8025000Y-2990000I15000J0D01*
G01*
X8025000Y-6390000D02*
G75*
G02*
X7995000Y-6390000I-15000J0D01*
G01*
X7995000Y-6390000D02*
G75*
G02*
X8025000Y-6390000I15000J0D01*
G01*
X8025000Y-6490000D02*
G75*
G02*
X7995000Y-6490000I-15000J0D01*
G01*
X7995000Y-6490000D02*
G75*
G02*
X8025000Y-6490000I15000J0D01*
G01*
X8075000Y-3290000D02*
G75*
G02*
X8045000Y-3290000I-15000J0D01*
G01*
X8045000Y-3290000D02*
G75*
G02*
X8075000Y-3290000I15000J0D01*
G01*
X8125000Y-2740000D02*
G75*
G02*
X8095000Y-2740000I-15000J0D01*
G01*
X8095000Y-2740000D02*
G75*
G02*
X8125000Y-2740000I15000J0D01*
G01*
X8225000Y-5040000D02*
G75*
G02*
X8195000Y-5040000I-15000J0D01*
G01*
X8195000Y-5040000D02*
G75*
G02*
X8225000Y-5040000I15000J0D01*
G01*
X8275000Y-3490000D02*
G75*
G02*
X8245000Y-3490000I-15000J0D01*
G01*
X8245000Y-3490000D02*
G75*
G02*
X8275000Y-3490000I15000J0D01*
G01*
X8275000Y-6940000D02*
G75*
G02*
X8245000Y-6940000I-15000J0D01*
G01*
X8245000Y-6940000D02*
G75*
G02*
X8275000Y-6940000I15000J0D01*
G01*
X8275000Y-9190000D02*
G75*
G02*
X8245000Y-9190000I-15000J0D01*
G01*
X8245000Y-9190000D02*
G75*
G02*
X8275000Y-9190000I15000J0D01*
G01*
X8325000Y-5540000D02*
G75*
G02*
X8295000Y-5540000I-15000J0D01*
G01*
X8295000Y-5540000D02*
G75*
G02*
X8325000Y-5540000I15000J0D01*
G01*
X8375000Y-9440000D02*
G75*
G02*
X8345000Y-9440000I-15000J0D01*
G01*
X8345000Y-9440000D02*
G75*
G02*
X8375000Y-9440000I15000J0D01*
G01*
X8425000Y-7590000D02*
G75*
G02*
X8395000Y-7590000I-15000J0D01*
G01*
X8395000Y-7590000D02*
G75*
G02*
X8425000Y-7590000I15000J0D01*
G01*
X8475000Y-3190000D02*
G75*
G02*
X8445000Y-3190000I-15000J0D01*
G01*
X8445000Y-3190000D02*
G75*
G02*
X8475000Y-3190000I15000J0D01*
G01*
X8525000Y-3890000D02*
G75*
G02*
X8495000Y-3890000I-15000J0D01*
G01*
X8495000Y-3890000D02*
G75*
G02*
X8525000Y-3890000I15000J0D01*
G01*
X8525000Y-6040000D02*
G75*
G02*
X8495000Y-6040000I-15000J0D01*
G01*
X8495000Y-6040000D02*
G75*
G02*
X8525000Y-6040000I15000J0D01*
G01*
X8525000Y-6490000D02*
G75*
G02*
X8495000Y-6490000I-15000J0D01*
G01*
X8495000Y-6490000D02*
G75*
G02*
X8525000Y-6490000I15000J0D01*
G01*
X8575000Y-6690000D02*
G75*
G02*
X8545000Y-6690000I-15000J0D01*
G01*
X8545000Y-6690000D02*
G75*
G02*
X8575000Y-6690000I15000J0D01*
G01*
X8625000Y-3990000D02*
G75*
G02*
X8595000Y-3990000I-15000J0D01*
G01*
X8595000Y-3990000D02*
G75*
G02*
X8625000Y-3990000I15000J0D01*
G01*
X8625000Y-9190000D02*
G75*
G02*
X8595000Y-9190000I-15000J0D01*
G01*
X8595000Y-9190000D02*
G75*
G02*
X8625000Y-9190000I15000J0D01*
G01*
X8725000Y-3190000D02*
G75*
G02*
X8695000Y-3190000I-15000J0D01*
G01*
X8695000Y-3190000D02*
G75*
G02*
X8725000Y-3190000I15000J0D01*
G01*
X8825000Y-4030000D02*
G75*
G02*
X8795000Y-4030000I-15000J0D01*
G01*
X8795000Y-4030000D02*
G75*
G02*
X8825000Y-4030000I15000J0D01*
G01*
X8875000Y-2940000D02*
G75*
G02*
X8845000Y-2940000I-15000J0D01*
G01*
X8845000Y-2940000D02*
G75*
G02*
X8875000Y-2940000I15000J0D01*
G01*
X8925000Y-4190000D02*
G75*
G02*
X8895000Y-4190000I-15000J0D01*
G01*
X8895000Y-4190000D02*
G75*
G02*
X8925000Y-4190000I15000J0D01*
G01*
X9015228Y-4110000D02*
G75*
G02*
X8985228Y-4110000I-15000J0D01*
G01*
X8985228Y-4110000D02*
G75*
G02*
X9015228Y-4110000I15000J0D01*
G01*
X9425000Y-4340000D02*
G75*
G02*
X9395000Y-4340000I-15000J0D01*
G01*
X9395000Y-4340000D02*
G75*
G02*
X9425000Y-4340000I15000J0D01*
G01*
X9725000Y-6990000D02*
G75*
G02*
X9695000Y-6990000I-15000J0D01*
G01*
X9695000Y-6990000D02*
G75*
G02*
X9725000Y-6990000I15000J0D01*
G01*
X9775000Y-4140000D02*
G75*
G02*
X9745000Y-4140000I-15000J0D01*
G01*
X9745000Y-4140000D02*
G75*
G02*
X9775000Y-4140000I15000J0D01*
G01*
X9775000Y-4390000D02*
G75*
G02*
X9745000Y-4390000I-15000J0D01*
G01*
X9745000Y-4390000D02*
G75*
G02*
X9775000Y-4390000I15000J0D01*
G01*
X9975000Y-7240000D02*
G75*
G02*
X9945000Y-7240000I-15000J0D01*
G01*
X9945000Y-7240000D02*
G75*
G02*
X9975000Y-7240000I15000J0D01*
G01*
X10175000Y-5240000D02*
G75*
G02*
X10145000Y-5240000I-15000J0D01*
G01*
X10145000Y-5240000D02*
G75*
G02*
X10175000Y-5240000I15000J0D01*
G01*
X10175000Y-5540000D02*
G75*
G02*
X10145000Y-5540000I-15000J0D01*
G01*
X10145000Y-5540000D02*
G75*
G02*
X10175000Y-5540000I15000J0D01*
G01*
X8734973Y-3524086D02*
X8734973Y-3584086D01*
X8704973Y-3554086D02*
X8764973Y-3554086D01*
X8717296Y-3614191D02*
X8795077Y-3536409D01*
X8752651Y-3493982D02*
G75*
G02*
X8795077Y-3536409I21213J-21213D01*
G01*
X8752651Y-3493982D02*
X8674869Y-3571764D01*
X8674869Y-3571764D02*
G75*
G03*
X8717296Y-3614191I21213J-21213D01*
G01*
X9030544Y-3228516D02*
X9030544Y-3288516D01*
X9000544Y-3258516D02*
X9060544Y-3258516D01*
X9023473Y-3308013D02*
X9080041Y-3251445D01*
X9037615Y-3209018D02*
G75*
G02*
X9080041Y-3251445I21213J-21213D01*
G01*
X9037615Y-3209018D02*
X8981046Y-3265587D01*
X8981046Y-3265587D02*
G75*
G03*
X9023473Y-3308013I21213J-21213D01*
G01*
X9345914Y-4135027D02*
X9345914Y-4195027D01*
X9315914Y-4165027D02*
X9375914Y-4165027D01*
X9328236Y-4225131D02*
X9406018Y-4147349D01*
X9363591Y-4104923D02*
G75*
G02*
X9406018Y-4147349I21213J-21213D01*
G01*
X9363591Y-4104923D02*
X9285809Y-4182704D01*
X9285809Y-4182704D02*
G75*
G03*
X9328236Y-4225131I21213J-21213D01*
G01*
X9641484Y-3839456D02*
X9641484Y-3899456D01*
X9611484Y-3869456D02*
X9671484Y-3869456D01*
X9634413Y-3918954D02*
X9690982Y-3862385D01*
X9648555Y-3819959D02*
G75*
G02*
X9690982Y-3862385I21213J-21213D01*
G01*
X9648555Y-3819959D02*
X9591987Y-3876527D01*
X9591987Y-3876527D02*
G75*
G03*
X9634413Y-3918954I21213J-21213D01*
G01*
X9536517Y-8066517D02*
X9536517Y-8013483D01*
X9483483Y-8013483D01*
X9483483Y-8066517D01*
X9536517Y-8066517D01*
X9677938Y-8207938D02*
X9677938Y-8154905D01*
X9624905Y-8154905D01*
X9624905Y-8207938D01*
X9677938Y-8207938D01*
X9147006Y-9122006D02*
X9192006Y-9077006D01*
X9147006Y-9032006D01*
X9102006Y-9077006D01*
X9147006Y-9122006D01*
X9283405Y-8975735D02*
X9328405Y-8930735D01*
X9283405Y-8885735D01*
X9238405Y-8930735D01*
X9283405Y-8975735D01*
X9419805Y-8829464D02*
X9464805Y-8784464D01*
X9419805Y-8739464D01*
X9374805Y-8784464D01*
X9419805Y-8829464D01*
D13*
X8928786Y-9155590D02*
X9078786Y-9305590D01*
X9078786Y-9155590D02*
X8928786Y-9305590D01*
X9078786Y-9230590D02*
G75*
G02*
X8928786Y-9230590I-75000J0D01*
G01*
X8928786Y-9230590D02*
G75*
G02*
X9078786Y-9230590I75000J0D01*
G01*
X9488025Y-8555880D02*
X9638025Y-8705880D01*
X9638025Y-8555880D02*
X9488025Y-8705880D01*
X9638025Y-8630880D02*
G75*
G02*
X9488025Y-8630880I-75000J0D01*
G01*
X9488025Y-8630880D02*
G75*
G02*
X9638025Y-8630880I75000J0D01*
G01*
D14*
X2950000Y-7830000D02*
X3270000Y-8150000D01*
X3270000Y-7830000D02*
X2950000Y-8150000D01*
X3110000Y-7830000D02*
X3110000Y-8150000D01*
X2950000Y-7990000D02*
X3270000Y-7990000D01*
X5200000Y-2630000D02*
X5520000Y-2950000D01*
X5520000Y-2630000D02*
X5200000Y-2950000D01*
X5360000Y-2630000D02*
X5360000Y-2950000D01*
X5200000Y-2790000D02*
X5520000Y-2790000D01*
X8050000Y-9530000D02*
X8370000Y-9850000D01*
X8370000Y-9530000D02*
X8050000Y-9850000D01*
X8210000Y-9530000D02*
X8210000Y-9850000D01*
X8050000Y-9690000D02*
X8370000Y-9690000D01*
D11*
X2418277Y-11003983D02*
X2418277Y-10803983D01*
X2418277Y-10803983D02*
X2465896Y-10803983D01*
X2465896Y-10803983D02*
X2494467Y-10813507D01*
X2494467Y-10813507D02*
X2513515Y-10832555D01*
X2513515Y-10832555D02*
X2523039Y-10851602D01*
X2523039Y-10851602D02*
X2532563Y-10889697D01*
X2532563Y-10889697D02*
X2532563Y-10918269D01*
X2532563Y-10918269D02*
X2523039Y-10956364D01*
X2523039Y-10956364D02*
X2513515Y-10975412D01*
X2513515Y-10975412D02*
X2494467Y-10994459D01*
X2494467Y-10994459D02*
X2465896Y-11003983D01*
X2465896Y-11003983D02*
X2418277Y-11003983D01*
X2618277Y-11003983D02*
X2618277Y-10870650D01*
X2618277Y-10908745D02*
X2627801Y-10889697D01*
X2627801Y-10889697D02*
X2637325Y-10880174D01*
X2637325Y-10880174D02*
X2656372Y-10870650D01*
X2656372Y-10870650D02*
X2675420Y-10870650D01*
X2742086Y-11003983D02*
X2742086Y-10870650D01*
X2742086Y-10803983D02*
X2732563Y-10813507D01*
X2732563Y-10813507D02*
X2742086Y-10823031D01*
X2742086Y-10823031D02*
X2751610Y-10813507D01*
X2751610Y-10813507D02*
X2742086Y-10803983D01*
X2742086Y-10803983D02*
X2742086Y-10823031D01*
X2865896Y-11003983D02*
X2846848Y-10994459D01*
X2846848Y-10994459D02*
X2837324Y-10975412D01*
X2837324Y-10975412D02*
X2837324Y-10803983D01*
X2970658Y-11003983D02*
X2951610Y-10994459D01*
X2951610Y-10994459D02*
X2942086Y-10975412D01*
X2942086Y-10975412D02*
X2942086Y-10803983D01*
X3199229Y-11003983D02*
X3199229Y-10803983D01*
X3199229Y-10803983D02*
X3265896Y-10946840D01*
X3265896Y-10946840D02*
X3332563Y-10803983D01*
X3332563Y-10803983D02*
X3332563Y-11003983D01*
X3513515Y-11003983D02*
X3513515Y-10899221D01*
X3513515Y-10899221D02*
X3503991Y-10880174D01*
X3503991Y-10880174D02*
X3484944Y-10870650D01*
X3484944Y-10870650D02*
X3446848Y-10870650D01*
X3446848Y-10870650D02*
X3427801Y-10880174D01*
X3513515Y-10994459D02*
X3494467Y-11003983D01*
X3494467Y-11003983D02*
X3446848Y-11003983D01*
X3446848Y-11003983D02*
X3427801Y-10994459D01*
X3427801Y-10994459D02*
X3418277Y-10975412D01*
X3418277Y-10975412D02*
X3418277Y-10956364D01*
X3418277Y-10956364D02*
X3427801Y-10937316D01*
X3427801Y-10937316D02*
X3446848Y-10927793D01*
X3446848Y-10927793D02*
X3494467Y-10927793D01*
X3494467Y-10927793D02*
X3513515Y-10918269D01*
X3608753Y-10870650D02*
X3608753Y-11070650D01*
X3608753Y-10880174D02*
X3627801Y-10870650D01*
X3627801Y-10870650D02*
X3665896Y-10870650D01*
X3665896Y-10870650D02*
X3684944Y-10880174D01*
X3684944Y-10880174D02*
X3694467Y-10889697D01*
X3694467Y-10889697D02*
X3703991Y-10908745D01*
X3703991Y-10908745D02*
X3703991Y-10965888D01*
X3703991Y-10965888D02*
X3694467Y-10984935D01*
X3694467Y-10984935D02*
X3684944Y-10994459D01*
X3684944Y-10994459D02*
X3665896Y-11003983D01*
X3665896Y-11003983D02*
X3627801Y-11003983D01*
X3627801Y-11003983D02*
X3608753Y-10994459D01*
X3789705Y-10984935D02*
X3799229Y-10994459D01*
X3799229Y-10994459D02*
X3789705Y-11003983D01*
X3789705Y-11003983D02*
X3780182Y-10994459D01*
X3780182Y-10994459D02*
X3789705Y-10984935D01*
X3789705Y-10984935D02*
X3789705Y-11003983D01*
X3789705Y-10880174D02*
X3799229Y-10889697D01*
X3799229Y-10889697D02*
X3789705Y-10899221D01*
X3789705Y-10899221D02*
X3780182Y-10889697D01*
X3780182Y-10889697D02*
X3789705Y-10880174D01*
X3789705Y-10880174D02*
X3789705Y-10899221D01*
D12*
X2137500Y-11322499D02*
X2157500Y-11342499D01*
X2157500Y-11322499D02*
X2137500Y-11342499D01*
D11*
X2456372Y-11223983D02*
X2475420Y-11223983D01*
X2475420Y-11223983D02*
X2494467Y-11233507D01*
X2494467Y-11233507D02*
X2503991Y-11243031D01*
X2503991Y-11243031D02*
X2513515Y-11262078D01*
X2513515Y-11262078D02*
X2523039Y-11300173D01*
X2523039Y-11300173D02*
X2523039Y-11347793D01*
X2523039Y-11347793D02*
X2513515Y-11385888D01*
X2513515Y-11385888D02*
X2503991Y-11404935D01*
X2503991Y-11404935D02*
X2494467Y-11414459D01*
X2494467Y-11414459D02*
X2475420Y-11423983D01*
X2475420Y-11423983D02*
X2456372Y-11423983D01*
X2456372Y-11423983D02*
X2437325Y-11414459D01*
X2437325Y-11414459D02*
X2427801Y-11404935D01*
X2427801Y-11404935D02*
X2418277Y-11385888D01*
X2418277Y-11385888D02*
X2408753Y-11347793D01*
X2408753Y-11347793D02*
X2408753Y-11300173D01*
X2408753Y-11300173D02*
X2418277Y-11262078D01*
X2418277Y-11262078D02*
X2427801Y-11243031D01*
X2427801Y-11243031D02*
X2437325Y-11233507D01*
X2437325Y-11233507D02*
X2456372Y-11223983D01*
X2608753Y-11404935D02*
X2618277Y-11414459D01*
X2618277Y-11414459D02*
X2608753Y-11423983D01*
X2608753Y-11423983D02*
X2599229Y-11414459D01*
X2599229Y-11414459D02*
X2608753Y-11404935D01*
X2608753Y-11404935D02*
X2608753Y-11423983D01*
X2694467Y-11243031D02*
X2703991Y-11233507D01*
X2703991Y-11233507D02*
X2723039Y-11223983D01*
X2723039Y-11223983D02*
X2770658Y-11223983D01*
X2770658Y-11223983D02*
X2789706Y-11233507D01*
X2789706Y-11233507D02*
X2799229Y-11243031D01*
X2799229Y-11243031D02*
X2808753Y-11262078D01*
X2808753Y-11262078D02*
X2808753Y-11281126D01*
X2808753Y-11281126D02*
X2799229Y-11309697D01*
X2799229Y-11309697D02*
X2684944Y-11423983D01*
X2684944Y-11423983D02*
X2808753Y-11423983D01*
X2932563Y-11223983D02*
X2951610Y-11223983D01*
X2951610Y-11223983D02*
X2970658Y-11233507D01*
X2970658Y-11233507D02*
X2980182Y-11243031D01*
X2980182Y-11243031D02*
X2989705Y-11262078D01*
X2989705Y-11262078D02*
X2999229Y-11300173D01*
X2999229Y-11300173D02*
X2999229Y-11347793D01*
X2999229Y-11347793D02*
X2989705Y-11385888D01*
X2989705Y-11385888D02*
X2980182Y-11404935D01*
X2980182Y-11404935D02*
X2970658Y-11414459D01*
X2970658Y-11414459D02*
X2951610Y-11423983D01*
X2951610Y-11423983D02*
X2932563Y-11423983D01*
X2932563Y-11423983D02*
X2913515Y-11414459D01*
X2913515Y-11414459D02*
X2903991Y-11404935D01*
X2903991Y-11404935D02*
X2894467Y-11385888D01*
X2894467Y-11385888D02*
X2884944Y-11347793D01*
X2884944Y-11347793D02*
X2884944Y-11300173D01*
X2884944Y-11300173D02*
X2894467Y-11262078D01*
X2894467Y-11262078D02*
X2903991Y-11243031D01*
X2903991Y-11243031D02*
X2913515Y-11233507D01*
X2913515Y-11233507D02*
X2932563Y-11223983D01*
X3123039Y-11223983D02*
X3142086Y-11223983D01*
X3142086Y-11223983D02*
X3161134Y-11233507D01*
X3161134Y-11233507D02*
X3170658Y-11243031D01*
X3170658Y-11243031D02*
X3180182Y-11262078D01*
X3180182Y-11262078D02*
X3189705Y-11300173D01*
X3189705Y-11300173D02*
X3189705Y-11347793D01*
X3189705Y-11347793D02*
X3180182Y-11385888D01*
X3180182Y-11385888D02*
X3170658Y-11404935D01*
X3170658Y-11404935D02*
X3161134Y-11414459D01*
X3161134Y-11414459D02*
X3142086Y-11423983D01*
X3142086Y-11423983D02*
X3123039Y-11423983D01*
X3123039Y-11423983D02*
X3103991Y-11414459D01*
X3103991Y-11414459D02*
X3094467Y-11404935D01*
X3094467Y-11404935D02*
X3084944Y-11385888D01*
X3084944Y-11385888D02*
X3075420Y-11347793D01*
X3075420Y-11347793D02*
X3075420Y-11300173D01*
X3075420Y-11300173D02*
X3084944Y-11262078D01*
X3084944Y-11262078D02*
X3094467Y-11243031D01*
X3094467Y-11243031D02*
X3103991Y-11233507D01*
X3103991Y-11233507D02*
X3123039Y-11223983D01*
X3275420Y-11423983D02*
X3275420Y-11290650D01*
X3275420Y-11309697D02*
X3284944Y-11300173D01*
X3284944Y-11300173D02*
X3303991Y-11290650D01*
X3303991Y-11290650D02*
X3332563Y-11290650D01*
X3332563Y-11290650D02*
X3351610Y-11300173D01*
X3351610Y-11300173D02*
X3361134Y-11319221D01*
X3361134Y-11319221D02*
X3361134Y-11423983D01*
X3361134Y-11319221D02*
X3370658Y-11300173D01*
X3370658Y-11300173D02*
X3389705Y-11290650D01*
X3389705Y-11290650D02*
X3418277Y-11290650D01*
X3418277Y-11290650D02*
X3437325Y-11300173D01*
X3437325Y-11300173D02*
X3446848Y-11319221D01*
X3446848Y-11319221D02*
X3446848Y-11423983D01*
X3542086Y-11423983D02*
X3542086Y-11290650D01*
X3542086Y-11309697D02*
X3551610Y-11300173D01*
X3551610Y-11300173D02*
X3570658Y-11290650D01*
X3570658Y-11290650D02*
X3599229Y-11290650D01*
X3599229Y-11290650D02*
X3618277Y-11300173D01*
X3618277Y-11300173D02*
X3627801Y-11319221D01*
X3627801Y-11319221D02*
X3627801Y-11423983D01*
X3627801Y-11319221D02*
X3637325Y-11300173D01*
X3637325Y-11300173D02*
X3656372Y-11290650D01*
X3656372Y-11290650D02*
X3684944Y-11290650D01*
X3684944Y-11290650D02*
X3703991Y-11300173D01*
X3703991Y-11300173D02*
X3713515Y-11319221D01*
X3713515Y-11319221D02*
X3713515Y-11423983D01*
X4103991Y-11214459D02*
X3932563Y-11471602D01*
X4361134Y-11223983D02*
X4380182Y-11223983D01*
X4380182Y-11223983D02*
X4399230Y-11233507D01*
X4399230Y-11233507D02*
X4408753Y-11243031D01*
X4408753Y-11243031D02*
X4418277Y-11262078D01*
X4418277Y-11262078D02*
X4427801Y-11300173D01*
X4427801Y-11300173D02*
X4427801Y-11347793D01*
X4427801Y-11347793D02*
X4418277Y-11385888D01*
X4418277Y-11385888D02*
X4408753Y-11404935D01*
X4408753Y-11404935D02*
X4399230Y-11414459D01*
X4399230Y-11414459D02*
X4380182Y-11423983D01*
X4380182Y-11423983D02*
X4361134Y-11423983D01*
X4361134Y-11423983D02*
X4342087Y-11414459D01*
X4342087Y-11414459D02*
X4332563Y-11404935D01*
X4332563Y-11404935D02*
X4323039Y-11385888D01*
X4323039Y-11385888D02*
X4313515Y-11347793D01*
X4313515Y-11347793D02*
X4313515Y-11300173D01*
X4313515Y-11300173D02*
X4323039Y-11262078D01*
X4323039Y-11262078D02*
X4332563Y-11243031D01*
X4332563Y-11243031D02*
X4342087Y-11233507D01*
X4342087Y-11233507D02*
X4361134Y-11223983D01*
X4513515Y-11404935D02*
X4523039Y-11414459D01*
X4523039Y-11414459D02*
X4513515Y-11423983D01*
X4513515Y-11423983D02*
X4503991Y-11414459D01*
X4503991Y-11414459D02*
X4513515Y-11404935D01*
X4513515Y-11404935D02*
X4513515Y-11423983D01*
X4646849Y-11223983D02*
X4665896Y-11223983D01*
X4665896Y-11223983D02*
X4684944Y-11233507D01*
X4684944Y-11233507D02*
X4694468Y-11243031D01*
X4694468Y-11243031D02*
X4703991Y-11262078D01*
X4703991Y-11262078D02*
X4713515Y-11300173D01*
X4713515Y-11300173D02*
X4713515Y-11347793D01*
X4713515Y-11347793D02*
X4703991Y-11385888D01*
X4703991Y-11385888D02*
X4694468Y-11404935D01*
X4694468Y-11404935D02*
X4684944Y-11414459D01*
X4684944Y-11414459D02*
X4665896Y-11423983D01*
X4665896Y-11423983D02*
X4646849Y-11423983D01*
X4646849Y-11423983D02*
X4627801Y-11414459D01*
X4627801Y-11414459D02*
X4618277Y-11404935D01*
X4618277Y-11404935D02*
X4608753Y-11385888D01*
X4608753Y-11385888D02*
X4599230Y-11347793D01*
X4599230Y-11347793D02*
X4599230Y-11300173D01*
X4599230Y-11300173D02*
X4608753Y-11262078D01*
X4608753Y-11262078D02*
X4618277Y-11243031D01*
X4618277Y-11243031D02*
X4627801Y-11233507D01*
X4627801Y-11233507D02*
X4646849Y-11223983D01*
X4837325Y-11223983D02*
X4856372Y-11223983D01*
X4856372Y-11223983D02*
X4875420Y-11233507D01*
X4875420Y-11233507D02*
X4884944Y-11243031D01*
X4884944Y-11243031D02*
X4894468Y-11262078D01*
X4894468Y-11262078D02*
X4903991Y-11300173D01*
X4903991Y-11300173D02*
X4903991Y-11347793D01*
X4903991Y-11347793D02*
X4894468Y-11385888D01*
X4894468Y-11385888D02*
X4884944Y-11404935D01*
X4884944Y-11404935D02*
X4875420Y-11414459D01*
X4875420Y-11414459D02*
X4856372Y-11423983D01*
X4856372Y-11423983D02*
X4837325Y-11423983D01*
X4837325Y-11423983D02*
X4818277Y-11414459D01*
X4818277Y-11414459D02*
X4808753Y-11404935D01*
X4808753Y-11404935D02*
X4799230Y-11385888D01*
X4799230Y-11385888D02*
X4789706Y-11347793D01*
X4789706Y-11347793D02*
X4789706Y-11300173D01*
X4789706Y-11300173D02*
X4799230Y-11262078D01*
X4799230Y-11262078D02*
X4808753Y-11243031D01*
X4808753Y-11243031D02*
X4818277Y-11233507D01*
X4818277Y-11233507D02*
X4837325Y-11223983D01*
X4970658Y-11223983D02*
X5103991Y-11223983D01*
X5103991Y-11223983D02*
X5018277Y-11423983D01*
X5189706Y-11423983D02*
X5227801Y-11423983D01*
X5227801Y-11423983D02*
X5246849Y-11414459D01*
X5246849Y-11414459D02*
X5256372Y-11404935D01*
X5256372Y-11404935D02*
X5275420Y-11376364D01*
X5275420Y-11376364D02*
X5284944Y-11338269D01*
X5284944Y-11338269D02*
X5284944Y-11262078D01*
X5284944Y-11262078D02*
X5275420Y-11243031D01*
X5275420Y-11243031D02*
X5265896Y-11233507D01*
X5265896Y-11233507D02*
X5246849Y-11223983D01*
X5246849Y-11223983D02*
X5208753Y-11223983D01*
X5208753Y-11223983D02*
X5189706Y-11233507D01*
X5189706Y-11233507D02*
X5180182Y-11243031D01*
X5180182Y-11243031D02*
X5170658Y-11262078D01*
X5170658Y-11262078D02*
X5170658Y-11309697D01*
X5170658Y-11309697D02*
X5180182Y-11328745D01*
X5180182Y-11328745D02*
X5189706Y-11338269D01*
X5189706Y-11338269D02*
X5208753Y-11347793D01*
X5208753Y-11347793D02*
X5246849Y-11347793D01*
X5246849Y-11347793D02*
X5265896Y-11338269D01*
X5265896Y-11338269D02*
X5275420Y-11328745D01*
X5275420Y-11328745D02*
X5284944Y-11309697D01*
X5361134Y-11223983D02*
X5361134Y-11262078D01*
X5437325Y-11223983D02*
X5437325Y-11262078D01*
X5732563Y-11500173D02*
X5723039Y-11490650D01*
X5723039Y-11490650D02*
X5703991Y-11462078D01*
X5703991Y-11462078D02*
X5694468Y-11443031D01*
X5694468Y-11443031D02*
X5684944Y-11414459D01*
X5684944Y-11414459D02*
X5675420Y-11366840D01*
X5675420Y-11366840D02*
X5675420Y-11328745D01*
X5675420Y-11328745D02*
X5684944Y-11281126D01*
X5684944Y-11281126D02*
X5694468Y-11252554D01*
X5694468Y-11252554D02*
X5703991Y-11233507D01*
X5703991Y-11233507D02*
X5723039Y-11204935D01*
X5723039Y-11204935D02*
X5732563Y-11195412D01*
X5913515Y-11423983D02*
X5799230Y-11423983D01*
X5856372Y-11423983D02*
X5856372Y-11223983D01*
X5856372Y-11223983D02*
X5837325Y-11252554D01*
X5837325Y-11252554D02*
X5818277Y-11271602D01*
X5818277Y-11271602D02*
X5799230Y-11281126D01*
X5989706Y-11243031D02*
X5999230Y-11233507D01*
X5999230Y-11233507D02*
X6018277Y-11223983D01*
X6018277Y-11223983D02*
X6065896Y-11223983D01*
X6065896Y-11223983D02*
X6084944Y-11233507D01*
X6084944Y-11233507D02*
X6094468Y-11243031D01*
X6094468Y-11243031D02*
X6103991Y-11262078D01*
X6103991Y-11262078D02*
X6103991Y-11281126D01*
X6103991Y-11281126D02*
X6094468Y-11309697D01*
X6094468Y-11309697D02*
X5980182Y-11423983D01*
X5980182Y-11423983D02*
X6103991Y-11423983D01*
X6342087Y-11423983D02*
X6342087Y-11223983D01*
X6427801Y-11423983D02*
X6427801Y-11319221D01*
X6427801Y-11319221D02*
X6418277Y-11300173D01*
X6418277Y-11300173D02*
X6399230Y-11290650D01*
X6399230Y-11290650D02*
X6370658Y-11290650D01*
X6370658Y-11290650D02*
X6351611Y-11300173D01*
X6351611Y-11300173D02*
X6342087Y-11309697D01*
X6551611Y-11423983D02*
X6532563Y-11414459D01*
X6532563Y-11414459D02*
X6523039Y-11404935D01*
X6523039Y-11404935D02*
X6513515Y-11385888D01*
X6513515Y-11385888D02*
X6513515Y-11328745D01*
X6513515Y-11328745D02*
X6523039Y-11309697D01*
X6523039Y-11309697D02*
X6532563Y-11300173D01*
X6532563Y-11300173D02*
X6551611Y-11290650D01*
X6551611Y-11290650D02*
X6580182Y-11290650D01*
X6580182Y-11290650D02*
X6599230Y-11300173D01*
X6599230Y-11300173D02*
X6608753Y-11309697D01*
X6608753Y-11309697D02*
X6618277Y-11328745D01*
X6618277Y-11328745D02*
X6618277Y-11385888D01*
X6618277Y-11385888D02*
X6608753Y-11404935D01*
X6608753Y-11404935D02*
X6599230Y-11414459D01*
X6599230Y-11414459D02*
X6580182Y-11423983D01*
X6580182Y-11423983D02*
X6551611Y-11423983D01*
X6732563Y-11423983D02*
X6713515Y-11414459D01*
X6713515Y-11414459D02*
X6703992Y-11395412D01*
X6703992Y-11395412D02*
X6703992Y-11223983D01*
X6884944Y-11414459D02*
X6865896Y-11423983D01*
X6865896Y-11423983D02*
X6827801Y-11423983D01*
X6827801Y-11423983D02*
X6808753Y-11414459D01*
X6808753Y-11414459D02*
X6799230Y-11395412D01*
X6799230Y-11395412D02*
X6799230Y-11319221D01*
X6799230Y-11319221D02*
X6808753Y-11300173D01*
X6808753Y-11300173D02*
X6827801Y-11290650D01*
X6827801Y-11290650D02*
X6865896Y-11290650D01*
X6865896Y-11290650D02*
X6884944Y-11300173D01*
X6884944Y-11300173D02*
X6894468Y-11319221D01*
X6894468Y-11319221D02*
X6894468Y-11338269D01*
X6894468Y-11338269D02*
X6799230Y-11357316D01*
X6970658Y-11414459D02*
X6989706Y-11423983D01*
X6989706Y-11423983D02*
X7027801Y-11423983D01*
X7027801Y-11423983D02*
X7046849Y-11414459D01*
X7046849Y-11414459D02*
X7056373Y-11395412D01*
X7056373Y-11395412D02*
X7056373Y-11385888D01*
X7056373Y-11385888D02*
X7046849Y-11366840D01*
X7046849Y-11366840D02*
X7027801Y-11357316D01*
X7027801Y-11357316D02*
X6999230Y-11357316D01*
X6999230Y-11357316D02*
X6980182Y-11347793D01*
X6980182Y-11347793D02*
X6970658Y-11328745D01*
X6970658Y-11328745D02*
X6970658Y-11319221D01*
X6970658Y-11319221D02*
X6980182Y-11300173D01*
X6980182Y-11300173D02*
X6999230Y-11290650D01*
X6999230Y-11290650D02*
X7027801Y-11290650D01*
X7027801Y-11290650D02*
X7046849Y-11300173D01*
X7123039Y-11500173D02*
X7132563Y-11490650D01*
X7132563Y-11490650D02*
X7151611Y-11462078D01*
X7151611Y-11462078D02*
X7161134Y-11443031D01*
X7161134Y-11443031D02*
X7170658Y-11414459D01*
X7170658Y-11414459D02*
X7180182Y-11366840D01*
X7180182Y-11366840D02*
X7180182Y-11328745D01*
X7180182Y-11328745D02*
X7170658Y-11281126D01*
X7170658Y-11281126D02*
X7161134Y-11252554D01*
X7161134Y-11252554D02*
X7151611Y-11233507D01*
X7151611Y-11233507D02*
X7132563Y-11204935D01*
X7132563Y-11204935D02*
X7123039Y-11195412D01*
D12*
X2157500Y-11596499D02*
G75*
G02*
X2127500Y-11596499I-15000J0D01*
G01*
X2127500Y-11596499D02*
G75*
G02*
X2157500Y-11596499I15000J0D01*
G01*
D11*
X2456372Y-11487983D02*
X2475420Y-11487983D01*
X2475420Y-11487983D02*
X2494467Y-11497507D01*
X2494467Y-11497507D02*
X2503991Y-11507031D01*
X2503991Y-11507031D02*
X2513515Y-11526078D01*
X2513515Y-11526078D02*
X2523039Y-11564173D01*
X2523039Y-11564173D02*
X2523039Y-11611793D01*
X2523039Y-11611793D02*
X2513515Y-11649888D01*
X2513515Y-11649888D02*
X2503991Y-11668935D01*
X2503991Y-11668935D02*
X2494467Y-11678459D01*
X2494467Y-11678459D02*
X2475420Y-11687983D01*
X2475420Y-11687983D02*
X2456372Y-11687983D01*
X2456372Y-11687983D02*
X2437325Y-11678459D01*
X2437325Y-11678459D02*
X2427801Y-11668935D01*
X2427801Y-11668935D02*
X2418277Y-11649888D01*
X2418277Y-11649888D02*
X2408753Y-11611793D01*
X2408753Y-11611793D02*
X2408753Y-11564173D01*
X2408753Y-11564173D02*
X2418277Y-11526078D01*
X2418277Y-11526078D02*
X2427801Y-11507031D01*
X2427801Y-11507031D02*
X2437325Y-11497507D01*
X2437325Y-11497507D02*
X2456372Y-11487983D01*
X2608753Y-11668935D02*
X2618277Y-11678459D01*
X2618277Y-11678459D02*
X2608753Y-11687983D01*
X2608753Y-11687983D02*
X2599229Y-11678459D01*
X2599229Y-11678459D02*
X2608753Y-11668935D01*
X2608753Y-11668935D02*
X2608753Y-11687983D01*
X2684944Y-11487983D02*
X2808753Y-11487983D01*
X2808753Y-11487983D02*
X2742086Y-11564173D01*
X2742086Y-11564173D02*
X2770658Y-11564173D01*
X2770658Y-11564173D02*
X2789706Y-11573697D01*
X2789706Y-11573697D02*
X2799229Y-11583221D01*
X2799229Y-11583221D02*
X2808753Y-11602269D01*
X2808753Y-11602269D02*
X2808753Y-11649888D01*
X2808753Y-11649888D02*
X2799229Y-11668935D01*
X2799229Y-11668935D02*
X2789706Y-11678459D01*
X2789706Y-11678459D02*
X2770658Y-11687983D01*
X2770658Y-11687983D02*
X2713515Y-11687983D01*
X2713515Y-11687983D02*
X2694467Y-11678459D01*
X2694467Y-11678459D02*
X2684944Y-11668935D01*
X2932563Y-11487983D02*
X2951610Y-11487983D01*
X2951610Y-11487983D02*
X2970658Y-11497507D01*
X2970658Y-11497507D02*
X2980182Y-11507031D01*
X2980182Y-11507031D02*
X2989705Y-11526078D01*
X2989705Y-11526078D02*
X2999229Y-11564173D01*
X2999229Y-11564173D02*
X2999229Y-11611793D01*
X2999229Y-11611793D02*
X2989705Y-11649888D01*
X2989705Y-11649888D02*
X2980182Y-11668935D01*
X2980182Y-11668935D02*
X2970658Y-11678459D01*
X2970658Y-11678459D02*
X2951610Y-11687983D01*
X2951610Y-11687983D02*
X2932563Y-11687983D01*
X2932563Y-11687983D02*
X2913515Y-11678459D01*
X2913515Y-11678459D02*
X2903991Y-11668935D01*
X2903991Y-11668935D02*
X2894467Y-11649888D01*
X2894467Y-11649888D02*
X2884944Y-11611793D01*
X2884944Y-11611793D02*
X2884944Y-11564173D01*
X2884944Y-11564173D02*
X2894467Y-11526078D01*
X2894467Y-11526078D02*
X2903991Y-11507031D01*
X2903991Y-11507031D02*
X2913515Y-11497507D01*
X2913515Y-11497507D02*
X2932563Y-11487983D01*
X3123039Y-11487983D02*
X3142086Y-11487983D01*
X3142086Y-11487983D02*
X3161134Y-11497507D01*
X3161134Y-11497507D02*
X3170658Y-11507031D01*
X3170658Y-11507031D02*
X3180182Y-11526078D01*
X3180182Y-11526078D02*
X3189705Y-11564173D01*
X3189705Y-11564173D02*
X3189705Y-11611793D01*
X3189705Y-11611793D02*
X3180182Y-11649888D01*
X3180182Y-11649888D02*
X3170658Y-11668935D01*
X3170658Y-11668935D02*
X3161134Y-11678459D01*
X3161134Y-11678459D02*
X3142086Y-11687983D01*
X3142086Y-11687983D02*
X3123039Y-11687983D01*
X3123039Y-11687983D02*
X3103991Y-11678459D01*
X3103991Y-11678459D02*
X3094467Y-11668935D01*
X3094467Y-11668935D02*
X3084944Y-11649888D01*
X3084944Y-11649888D02*
X3075420Y-11611793D01*
X3075420Y-11611793D02*
X3075420Y-11564173D01*
X3075420Y-11564173D02*
X3084944Y-11526078D01*
X3084944Y-11526078D02*
X3094467Y-11507031D01*
X3094467Y-11507031D02*
X3103991Y-11497507D01*
X3103991Y-11497507D02*
X3123039Y-11487983D01*
X3275420Y-11687983D02*
X3275420Y-11554650D01*
X3275420Y-11573697D02*
X3284944Y-11564173D01*
X3284944Y-11564173D02*
X3303991Y-11554650D01*
X3303991Y-11554650D02*
X3332563Y-11554650D01*
X3332563Y-11554650D02*
X3351610Y-11564173D01*
X3351610Y-11564173D02*
X3361134Y-11583221D01*
X3361134Y-11583221D02*
X3361134Y-11687983D01*
X3361134Y-11583221D02*
X3370658Y-11564173D01*
X3370658Y-11564173D02*
X3389705Y-11554650D01*
X3389705Y-11554650D02*
X3418277Y-11554650D01*
X3418277Y-11554650D02*
X3437325Y-11564173D01*
X3437325Y-11564173D02*
X3446848Y-11583221D01*
X3446848Y-11583221D02*
X3446848Y-11687983D01*
X3542086Y-11687983D02*
X3542086Y-11554650D01*
X3542086Y-11573697D02*
X3551610Y-11564173D01*
X3551610Y-11564173D02*
X3570658Y-11554650D01*
X3570658Y-11554650D02*
X3599229Y-11554650D01*
X3599229Y-11554650D02*
X3618277Y-11564173D01*
X3618277Y-11564173D02*
X3627801Y-11583221D01*
X3627801Y-11583221D02*
X3627801Y-11687983D01*
X3627801Y-11583221D02*
X3637325Y-11564173D01*
X3637325Y-11564173D02*
X3656372Y-11554650D01*
X3656372Y-11554650D02*
X3684944Y-11554650D01*
X3684944Y-11554650D02*
X3703991Y-11564173D01*
X3703991Y-11564173D02*
X3713515Y-11583221D01*
X3713515Y-11583221D02*
X3713515Y-11687983D01*
X4103991Y-11478459D02*
X3932563Y-11735602D01*
X4361134Y-11487983D02*
X4380182Y-11487983D01*
X4380182Y-11487983D02*
X4399230Y-11497507D01*
X4399230Y-11497507D02*
X4408753Y-11507031D01*
X4408753Y-11507031D02*
X4418277Y-11526078D01*
X4418277Y-11526078D02*
X4427801Y-11564173D01*
X4427801Y-11564173D02*
X4427801Y-11611793D01*
X4427801Y-11611793D02*
X4418277Y-11649888D01*
X4418277Y-11649888D02*
X4408753Y-11668935D01*
X4408753Y-11668935D02*
X4399230Y-11678459D01*
X4399230Y-11678459D02*
X4380182Y-11687983D01*
X4380182Y-11687983D02*
X4361134Y-11687983D01*
X4361134Y-11687983D02*
X4342087Y-11678459D01*
X4342087Y-11678459D02*
X4332563Y-11668935D01*
X4332563Y-11668935D02*
X4323039Y-11649888D01*
X4323039Y-11649888D02*
X4313515Y-11611793D01*
X4313515Y-11611793D02*
X4313515Y-11564173D01*
X4313515Y-11564173D02*
X4323039Y-11526078D01*
X4323039Y-11526078D02*
X4332563Y-11507031D01*
X4332563Y-11507031D02*
X4342087Y-11497507D01*
X4342087Y-11497507D02*
X4361134Y-11487983D01*
X4513515Y-11668935D02*
X4523039Y-11678459D01*
X4523039Y-11678459D02*
X4513515Y-11687983D01*
X4513515Y-11687983D02*
X4503991Y-11678459D01*
X4503991Y-11678459D02*
X4513515Y-11668935D01*
X4513515Y-11668935D02*
X4513515Y-11687983D01*
X4646849Y-11487983D02*
X4665896Y-11487983D01*
X4665896Y-11487983D02*
X4684944Y-11497507D01*
X4684944Y-11497507D02*
X4694468Y-11507031D01*
X4694468Y-11507031D02*
X4703991Y-11526078D01*
X4703991Y-11526078D02*
X4713515Y-11564173D01*
X4713515Y-11564173D02*
X4713515Y-11611793D01*
X4713515Y-11611793D02*
X4703991Y-11649888D01*
X4703991Y-11649888D02*
X4694468Y-11668935D01*
X4694468Y-11668935D02*
X4684944Y-11678459D01*
X4684944Y-11678459D02*
X4665896Y-11687983D01*
X4665896Y-11687983D02*
X4646849Y-11687983D01*
X4646849Y-11687983D02*
X4627801Y-11678459D01*
X4627801Y-11678459D02*
X4618277Y-11668935D01*
X4618277Y-11668935D02*
X4608753Y-11649888D01*
X4608753Y-11649888D02*
X4599230Y-11611793D01*
X4599230Y-11611793D02*
X4599230Y-11564173D01*
X4599230Y-11564173D02*
X4608753Y-11526078D01*
X4608753Y-11526078D02*
X4618277Y-11507031D01*
X4618277Y-11507031D02*
X4627801Y-11497507D01*
X4627801Y-11497507D02*
X4646849Y-11487983D01*
X4903991Y-11687983D02*
X4789706Y-11687983D01*
X4846849Y-11687983D02*
X4846849Y-11487983D01*
X4846849Y-11487983D02*
X4827801Y-11516554D01*
X4827801Y-11516554D02*
X4808753Y-11535602D01*
X4808753Y-11535602D02*
X4789706Y-11545126D01*
X5094468Y-11687983D02*
X4980182Y-11687983D01*
X5037325Y-11687983D02*
X5037325Y-11487983D01*
X5037325Y-11487983D02*
X5018277Y-11516554D01*
X5018277Y-11516554D02*
X4999230Y-11535602D01*
X4999230Y-11535602D02*
X4980182Y-11545126D01*
X5208753Y-11573697D02*
X5189706Y-11564173D01*
X5189706Y-11564173D02*
X5180182Y-11554650D01*
X5180182Y-11554650D02*
X5170658Y-11535602D01*
X5170658Y-11535602D02*
X5170658Y-11526078D01*
X5170658Y-11526078D02*
X5180182Y-11507031D01*
X5180182Y-11507031D02*
X5189706Y-11497507D01*
X5189706Y-11497507D02*
X5208753Y-11487983D01*
X5208753Y-11487983D02*
X5246849Y-11487983D01*
X5246849Y-11487983D02*
X5265896Y-11497507D01*
X5265896Y-11497507D02*
X5275420Y-11507031D01*
X5275420Y-11507031D02*
X5284944Y-11526078D01*
X5284944Y-11526078D02*
X5284944Y-11535602D01*
X5284944Y-11535602D02*
X5275420Y-11554650D01*
X5275420Y-11554650D02*
X5265896Y-11564173D01*
X5265896Y-11564173D02*
X5246849Y-11573697D01*
X5246849Y-11573697D02*
X5208753Y-11573697D01*
X5208753Y-11573697D02*
X5189706Y-11583221D01*
X5189706Y-11583221D02*
X5180182Y-11592745D01*
X5180182Y-11592745D02*
X5170658Y-11611793D01*
X5170658Y-11611793D02*
X5170658Y-11649888D01*
X5170658Y-11649888D02*
X5180182Y-11668935D01*
X5180182Y-11668935D02*
X5189706Y-11678459D01*
X5189706Y-11678459D02*
X5208753Y-11687983D01*
X5208753Y-11687983D02*
X5246849Y-11687983D01*
X5246849Y-11687983D02*
X5265896Y-11678459D01*
X5265896Y-11678459D02*
X5275420Y-11668935D01*
X5275420Y-11668935D02*
X5284944Y-11649888D01*
X5284944Y-11649888D02*
X5284944Y-11611793D01*
X5284944Y-11611793D02*
X5275420Y-11592745D01*
X5275420Y-11592745D02*
X5265896Y-11583221D01*
X5265896Y-11583221D02*
X5246849Y-11573697D01*
X5361134Y-11487983D02*
X5361134Y-11526078D01*
X5437325Y-11487983D02*
X5437325Y-11526078D01*
X5732563Y-11764173D02*
X5723039Y-11754650D01*
X5723039Y-11754650D02*
X5703991Y-11726078D01*
X5703991Y-11726078D02*
X5694468Y-11707031D01*
X5694468Y-11707031D02*
X5684944Y-11678459D01*
X5684944Y-11678459D02*
X5675420Y-11630840D01*
X5675420Y-11630840D02*
X5675420Y-11592745D01*
X5675420Y-11592745D02*
X5684944Y-11545126D01*
X5684944Y-11545126D02*
X5694468Y-11516554D01*
X5694468Y-11516554D02*
X5703991Y-11497507D01*
X5703991Y-11497507D02*
X5723039Y-11468935D01*
X5723039Y-11468935D02*
X5732563Y-11459412D01*
X5789706Y-11487983D02*
X5923039Y-11487983D01*
X5923039Y-11487983D02*
X5837325Y-11687983D01*
X6103991Y-11687983D02*
X5989706Y-11687983D01*
X6046849Y-11687983D02*
X6046849Y-11487983D01*
X6046849Y-11487983D02*
X6027801Y-11516554D01*
X6027801Y-11516554D02*
X6008753Y-11535602D01*
X6008753Y-11535602D02*
X5989706Y-11545126D01*
X6342087Y-11687983D02*
X6342087Y-11487983D01*
X6427801Y-11687983D02*
X6427801Y-11583221D01*
X6427801Y-11583221D02*
X6418277Y-11564173D01*
X6418277Y-11564173D02*
X6399230Y-11554650D01*
X6399230Y-11554650D02*
X6370658Y-11554650D01*
X6370658Y-11554650D02*
X6351611Y-11564173D01*
X6351611Y-11564173D02*
X6342087Y-11573697D01*
X6551611Y-11687983D02*
X6532563Y-11678459D01*
X6532563Y-11678459D02*
X6523039Y-11668935D01*
X6523039Y-11668935D02*
X6513515Y-11649888D01*
X6513515Y-11649888D02*
X6513515Y-11592745D01*
X6513515Y-11592745D02*
X6523039Y-11573697D01*
X6523039Y-11573697D02*
X6532563Y-11564173D01*
X6532563Y-11564173D02*
X6551611Y-11554650D01*
X6551611Y-11554650D02*
X6580182Y-11554650D01*
X6580182Y-11554650D02*
X6599230Y-11564173D01*
X6599230Y-11564173D02*
X6608753Y-11573697D01*
X6608753Y-11573697D02*
X6618277Y-11592745D01*
X6618277Y-11592745D02*
X6618277Y-11649888D01*
X6618277Y-11649888D02*
X6608753Y-11668935D01*
X6608753Y-11668935D02*
X6599230Y-11678459D01*
X6599230Y-11678459D02*
X6580182Y-11687983D01*
X6580182Y-11687983D02*
X6551611Y-11687983D01*
X6732563Y-11687983D02*
X6713515Y-11678459D01*
X6713515Y-11678459D02*
X6703992Y-11659412D01*
X6703992Y-11659412D02*
X6703992Y-11487983D01*
X6884944Y-11678459D02*
X6865896Y-11687983D01*
X6865896Y-11687983D02*
X6827801Y-11687983D01*
X6827801Y-11687983D02*
X6808753Y-11678459D01*
X6808753Y-11678459D02*
X6799230Y-11659412D01*
X6799230Y-11659412D02*
X6799230Y-11583221D01*
X6799230Y-11583221D02*
X6808753Y-11564173D01*
X6808753Y-11564173D02*
X6827801Y-11554650D01*
X6827801Y-11554650D02*
X6865896Y-11554650D01*
X6865896Y-11554650D02*
X6884944Y-11564173D01*
X6884944Y-11564173D02*
X6894468Y-11583221D01*
X6894468Y-11583221D02*
X6894468Y-11602269D01*
X6894468Y-11602269D02*
X6799230Y-11621316D01*
X6970658Y-11678459D02*
X6989706Y-11687983D01*
X6989706Y-11687983D02*
X7027801Y-11687983D01*
X7027801Y-11687983D02*
X7046849Y-11678459D01*
X7046849Y-11678459D02*
X7056373Y-11659412D01*
X7056373Y-11659412D02*
X7056373Y-11649888D01*
X7056373Y-11649888D02*
X7046849Y-11630840D01*
X7046849Y-11630840D02*
X7027801Y-11621316D01*
X7027801Y-11621316D02*
X6999230Y-11621316D01*
X6999230Y-11621316D02*
X6980182Y-11611793D01*
X6980182Y-11611793D02*
X6970658Y-11592745D01*
X6970658Y-11592745D02*
X6970658Y-11583221D01*
X6970658Y-11583221D02*
X6980182Y-11564173D01*
X6980182Y-11564173D02*
X6999230Y-11554650D01*
X6999230Y-11554650D02*
X7027801Y-11554650D01*
X7027801Y-11554650D02*
X7046849Y-11564173D01*
X7123039Y-11764173D02*
X7132563Y-11754650D01*
X7132563Y-11754650D02*
X7151611Y-11726078D01*
X7151611Y-11726078D02*
X7161134Y-11707031D01*
X7161134Y-11707031D02*
X7170658Y-11678459D01*
X7170658Y-11678459D02*
X7180182Y-11630840D01*
X7180182Y-11630840D02*
X7180182Y-11592745D01*
X7180182Y-11592745D02*
X7170658Y-11545126D01*
X7170658Y-11545126D02*
X7161134Y-11516554D01*
X7161134Y-11516554D02*
X7151611Y-11497507D01*
X7151611Y-11497507D02*
X7132563Y-11468935D01*
X7132563Y-11468935D02*
X7123039Y-11459412D01*
D12*
X2127500Y-11830499D02*
X2127500Y-11890499D01*
X2097500Y-11860499D02*
X2157500Y-11860499D01*
D11*
X2456372Y-11751983D02*
X2475420Y-11751983D01*
X2475420Y-11751983D02*
X2494467Y-11761507D01*
X2494467Y-11761507D02*
X2503991Y-11771031D01*
X2503991Y-11771031D02*
X2513515Y-11790078D01*
X2513515Y-11790078D02*
X2523039Y-11828173D01*
X2523039Y-11828173D02*
X2523039Y-11875793D01*
X2523039Y-11875793D02*
X2513515Y-11913888D01*
X2513515Y-11913888D02*
X2503991Y-11932935D01*
X2503991Y-11932935D02*
X2494467Y-11942459D01*
X2494467Y-11942459D02*
X2475420Y-11951983D01*
X2475420Y-11951983D02*
X2456372Y-11951983D01*
X2456372Y-11951983D02*
X2437325Y-11942459D01*
X2437325Y-11942459D02*
X2427801Y-11932935D01*
X2427801Y-11932935D02*
X2418277Y-11913888D01*
X2418277Y-11913888D02*
X2408753Y-11875793D01*
X2408753Y-11875793D02*
X2408753Y-11828173D01*
X2408753Y-11828173D02*
X2418277Y-11790078D01*
X2418277Y-11790078D02*
X2427801Y-11771031D01*
X2427801Y-11771031D02*
X2437325Y-11761507D01*
X2437325Y-11761507D02*
X2456372Y-11751983D01*
X2608753Y-11932935D02*
X2618277Y-11942459D01*
X2618277Y-11942459D02*
X2608753Y-11951983D01*
X2608753Y-11951983D02*
X2599229Y-11942459D01*
X2599229Y-11942459D02*
X2608753Y-11932935D01*
X2608753Y-11932935D02*
X2608753Y-11951983D01*
X2789706Y-11751983D02*
X2751610Y-11751983D01*
X2751610Y-11751983D02*
X2732563Y-11761507D01*
X2732563Y-11761507D02*
X2723039Y-11771031D01*
X2723039Y-11771031D02*
X2703991Y-11799602D01*
X2703991Y-11799602D02*
X2694467Y-11837697D01*
X2694467Y-11837697D02*
X2694467Y-11913888D01*
X2694467Y-11913888D02*
X2703991Y-11932935D01*
X2703991Y-11932935D02*
X2713515Y-11942459D01*
X2713515Y-11942459D02*
X2732563Y-11951983D01*
X2732563Y-11951983D02*
X2770658Y-11951983D01*
X2770658Y-11951983D02*
X2789706Y-11942459D01*
X2789706Y-11942459D02*
X2799229Y-11932935D01*
X2799229Y-11932935D02*
X2808753Y-11913888D01*
X2808753Y-11913888D02*
X2808753Y-11866269D01*
X2808753Y-11866269D02*
X2799229Y-11847221D01*
X2799229Y-11847221D02*
X2789706Y-11837697D01*
X2789706Y-11837697D02*
X2770658Y-11828173D01*
X2770658Y-11828173D02*
X2732563Y-11828173D01*
X2732563Y-11828173D02*
X2713515Y-11837697D01*
X2713515Y-11837697D02*
X2703991Y-11847221D01*
X2703991Y-11847221D02*
X2694467Y-11866269D01*
X2932563Y-11751983D02*
X2951610Y-11751983D01*
X2951610Y-11751983D02*
X2970658Y-11761507D01*
X2970658Y-11761507D02*
X2980182Y-11771031D01*
X2980182Y-11771031D02*
X2989705Y-11790078D01*
X2989705Y-11790078D02*
X2999229Y-11828173D01*
X2999229Y-11828173D02*
X2999229Y-11875793D01*
X2999229Y-11875793D02*
X2989705Y-11913888D01*
X2989705Y-11913888D02*
X2980182Y-11932935D01*
X2980182Y-11932935D02*
X2970658Y-11942459D01*
X2970658Y-11942459D02*
X2951610Y-11951983D01*
X2951610Y-11951983D02*
X2932563Y-11951983D01*
X2932563Y-11951983D02*
X2913515Y-11942459D01*
X2913515Y-11942459D02*
X2903991Y-11932935D01*
X2903991Y-11932935D02*
X2894467Y-11913888D01*
X2894467Y-11913888D02*
X2884944Y-11875793D01*
X2884944Y-11875793D02*
X2884944Y-11828173D01*
X2884944Y-11828173D02*
X2894467Y-11790078D01*
X2894467Y-11790078D02*
X2903991Y-11771031D01*
X2903991Y-11771031D02*
X2913515Y-11761507D01*
X2913515Y-11761507D02*
X2932563Y-11751983D01*
X3123039Y-11751983D02*
X3142086Y-11751983D01*
X3142086Y-11751983D02*
X3161134Y-11761507D01*
X3161134Y-11761507D02*
X3170658Y-11771031D01*
X3170658Y-11771031D02*
X3180182Y-11790078D01*
X3180182Y-11790078D02*
X3189705Y-11828173D01*
X3189705Y-11828173D02*
X3189705Y-11875793D01*
X3189705Y-11875793D02*
X3180182Y-11913888D01*
X3180182Y-11913888D02*
X3170658Y-11932935D01*
X3170658Y-11932935D02*
X3161134Y-11942459D01*
X3161134Y-11942459D02*
X3142086Y-11951983D01*
X3142086Y-11951983D02*
X3123039Y-11951983D01*
X3123039Y-11951983D02*
X3103991Y-11942459D01*
X3103991Y-11942459D02*
X3094467Y-11932935D01*
X3094467Y-11932935D02*
X3084944Y-11913888D01*
X3084944Y-11913888D02*
X3075420Y-11875793D01*
X3075420Y-11875793D02*
X3075420Y-11828173D01*
X3075420Y-11828173D02*
X3084944Y-11790078D01*
X3084944Y-11790078D02*
X3094467Y-11771031D01*
X3094467Y-11771031D02*
X3103991Y-11761507D01*
X3103991Y-11761507D02*
X3123039Y-11751983D01*
X3275420Y-11951983D02*
X3275420Y-11818650D01*
X3275420Y-11837697D02*
X3284944Y-11828173D01*
X3284944Y-11828173D02*
X3303991Y-11818650D01*
X3303991Y-11818650D02*
X3332563Y-11818650D01*
X3332563Y-11818650D02*
X3351610Y-11828173D01*
X3351610Y-11828173D02*
X3361134Y-11847221D01*
X3361134Y-11847221D02*
X3361134Y-11951983D01*
X3361134Y-11847221D02*
X3370658Y-11828173D01*
X3370658Y-11828173D02*
X3389705Y-11818650D01*
X3389705Y-11818650D02*
X3418277Y-11818650D01*
X3418277Y-11818650D02*
X3437325Y-11828173D01*
X3437325Y-11828173D02*
X3446848Y-11847221D01*
X3446848Y-11847221D02*
X3446848Y-11951983D01*
X3542086Y-11951983D02*
X3542086Y-11818650D01*
X3542086Y-11837697D02*
X3551610Y-11828173D01*
X3551610Y-11828173D02*
X3570658Y-11818650D01*
X3570658Y-11818650D02*
X3599229Y-11818650D01*
X3599229Y-11818650D02*
X3618277Y-11828173D01*
X3618277Y-11828173D02*
X3627801Y-11847221D01*
X3627801Y-11847221D02*
X3627801Y-11951983D01*
X3627801Y-11847221D02*
X3637325Y-11828173D01*
X3637325Y-11828173D02*
X3656372Y-11818650D01*
X3656372Y-11818650D02*
X3684944Y-11818650D01*
X3684944Y-11818650D02*
X3703991Y-11828173D01*
X3703991Y-11828173D02*
X3713515Y-11847221D01*
X3713515Y-11847221D02*
X3713515Y-11951983D01*
X4103991Y-11742459D02*
X3932563Y-11999602D01*
X4361134Y-11751983D02*
X4380182Y-11751983D01*
X4380182Y-11751983D02*
X4399230Y-11761507D01*
X4399230Y-11761507D02*
X4408753Y-11771031D01*
X4408753Y-11771031D02*
X4418277Y-11790078D01*
X4418277Y-11790078D02*
X4427801Y-11828173D01*
X4427801Y-11828173D02*
X4427801Y-11875793D01*
X4427801Y-11875793D02*
X4418277Y-11913888D01*
X4418277Y-11913888D02*
X4408753Y-11932935D01*
X4408753Y-11932935D02*
X4399230Y-11942459D01*
X4399230Y-11942459D02*
X4380182Y-11951983D01*
X4380182Y-11951983D02*
X4361134Y-11951983D01*
X4361134Y-11951983D02*
X4342087Y-11942459D01*
X4342087Y-11942459D02*
X4332563Y-11932935D01*
X4332563Y-11932935D02*
X4323039Y-11913888D01*
X4323039Y-11913888D02*
X4313515Y-11875793D01*
X4313515Y-11875793D02*
X4313515Y-11828173D01*
X4313515Y-11828173D02*
X4323039Y-11790078D01*
X4323039Y-11790078D02*
X4332563Y-11771031D01*
X4332563Y-11771031D02*
X4342087Y-11761507D01*
X4342087Y-11761507D02*
X4361134Y-11751983D01*
X4513515Y-11932935D02*
X4523039Y-11942459D01*
X4523039Y-11942459D02*
X4513515Y-11951983D01*
X4513515Y-11951983D02*
X4503991Y-11942459D01*
X4503991Y-11942459D02*
X4513515Y-11932935D01*
X4513515Y-11932935D02*
X4513515Y-11951983D01*
X4646849Y-11751983D02*
X4665896Y-11751983D01*
X4665896Y-11751983D02*
X4684944Y-11761507D01*
X4684944Y-11761507D02*
X4694468Y-11771031D01*
X4694468Y-11771031D02*
X4703991Y-11790078D01*
X4703991Y-11790078D02*
X4713515Y-11828173D01*
X4713515Y-11828173D02*
X4713515Y-11875793D01*
X4713515Y-11875793D02*
X4703991Y-11913888D01*
X4703991Y-11913888D02*
X4694468Y-11932935D01*
X4694468Y-11932935D02*
X4684944Y-11942459D01*
X4684944Y-11942459D02*
X4665896Y-11951983D01*
X4665896Y-11951983D02*
X4646849Y-11951983D01*
X4646849Y-11951983D02*
X4627801Y-11942459D01*
X4627801Y-11942459D02*
X4618277Y-11932935D01*
X4618277Y-11932935D02*
X4608753Y-11913888D01*
X4608753Y-11913888D02*
X4599230Y-11875793D01*
X4599230Y-11875793D02*
X4599230Y-11828173D01*
X4599230Y-11828173D02*
X4608753Y-11790078D01*
X4608753Y-11790078D02*
X4618277Y-11771031D01*
X4618277Y-11771031D02*
X4627801Y-11761507D01*
X4627801Y-11761507D02*
X4646849Y-11751983D01*
X4789706Y-11771031D02*
X4799230Y-11761507D01*
X4799230Y-11761507D02*
X4818277Y-11751983D01*
X4818277Y-11751983D02*
X4865896Y-11751983D01*
X4865896Y-11751983D02*
X4884944Y-11761507D01*
X4884944Y-11761507D02*
X4894468Y-11771031D01*
X4894468Y-11771031D02*
X4903991Y-11790078D01*
X4903991Y-11790078D02*
X4903991Y-11809126D01*
X4903991Y-11809126D02*
X4894468Y-11837697D01*
X4894468Y-11837697D02*
X4780182Y-11951983D01*
X4780182Y-11951983D02*
X4903991Y-11951983D01*
X4970658Y-11751983D02*
X5094468Y-11751983D01*
X5094468Y-11751983D02*
X5027801Y-11828173D01*
X5027801Y-11828173D02*
X5056372Y-11828173D01*
X5056372Y-11828173D02*
X5075420Y-11837697D01*
X5075420Y-11837697D02*
X5084944Y-11847221D01*
X5084944Y-11847221D02*
X5094468Y-11866269D01*
X5094468Y-11866269D02*
X5094468Y-11913888D01*
X5094468Y-11913888D02*
X5084944Y-11932935D01*
X5084944Y-11932935D02*
X5075420Y-11942459D01*
X5075420Y-11942459D02*
X5056372Y-11951983D01*
X5056372Y-11951983D02*
X4999230Y-11951983D01*
X4999230Y-11951983D02*
X4980182Y-11942459D01*
X4980182Y-11942459D02*
X4970658Y-11932935D01*
X5265896Y-11751983D02*
X5227801Y-11751983D01*
X5227801Y-11751983D02*
X5208753Y-11761507D01*
X5208753Y-11761507D02*
X5199230Y-11771031D01*
X5199230Y-11771031D02*
X5180182Y-11799602D01*
X5180182Y-11799602D02*
X5170658Y-11837697D01*
X5170658Y-11837697D02*
X5170658Y-11913888D01*
X5170658Y-11913888D02*
X5180182Y-11932935D01*
X5180182Y-11932935D02*
X5189706Y-11942459D01*
X5189706Y-11942459D02*
X5208753Y-11951983D01*
X5208753Y-11951983D02*
X5246849Y-11951983D01*
X5246849Y-11951983D02*
X5265896Y-11942459D01*
X5265896Y-11942459D02*
X5275420Y-11932935D01*
X5275420Y-11932935D02*
X5284944Y-11913888D01*
X5284944Y-11913888D02*
X5284944Y-11866269D01*
X5284944Y-11866269D02*
X5275420Y-11847221D01*
X5275420Y-11847221D02*
X5265896Y-11837697D01*
X5265896Y-11837697D02*
X5246849Y-11828173D01*
X5246849Y-11828173D02*
X5208753Y-11828173D01*
X5208753Y-11828173D02*
X5189706Y-11837697D01*
X5189706Y-11837697D02*
X5180182Y-11847221D01*
X5180182Y-11847221D02*
X5170658Y-11866269D01*
X5361134Y-11751983D02*
X5361134Y-11790078D01*
X5437325Y-11751983D02*
X5437325Y-11790078D01*
X5732563Y-12028173D02*
X5723039Y-12018650D01*
X5723039Y-12018650D02*
X5703991Y-11990078D01*
X5703991Y-11990078D02*
X5694468Y-11971031D01*
X5694468Y-11971031D02*
X5684944Y-11942459D01*
X5684944Y-11942459D02*
X5675420Y-11894840D01*
X5675420Y-11894840D02*
X5675420Y-11856745D01*
X5675420Y-11856745D02*
X5684944Y-11809126D01*
X5684944Y-11809126D02*
X5694468Y-11780554D01*
X5694468Y-11780554D02*
X5703991Y-11761507D01*
X5703991Y-11761507D02*
X5723039Y-11732935D01*
X5723039Y-11732935D02*
X5732563Y-11723412D01*
X5846849Y-11751983D02*
X5865896Y-11751983D01*
X5865896Y-11751983D02*
X5884944Y-11761507D01*
X5884944Y-11761507D02*
X5894468Y-11771031D01*
X5894468Y-11771031D02*
X5903991Y-11790078D01*
X5903991Y-11790078D02*
X5913515Y-11828173D01*
X5913515Y-11828173D02*
X5913515Y-11875793D01*
X5913515Y-11875793D02*
X5903991Y-11913888D01*
X5903991Y-11913888D02*
X5894468Y-11932935D01*
X5894468Y-11932935D02*
X5884944Y-11942459D01*
X5884944Y-11942459D02*
X5865896Y-11951983D01*
X5865896Y-11951983D02*
X5846849Y-11951983D01*
X5846849Y-11951983D02*
X5827801Y-11942459D01*
X5827801Y-11942459D02*
X5818277Y-11932935D01*
X5818277Y-11932935D02*
X5808753Y-11913888D01*
X5808753Y-11913888D02*
X5799230Y-11875793D01*
X5799230Y-11875793D02*
X5799230Y-11828173D01*
X5799230Y-11828173D02*
X5808753Y-11790078D01*
X5808753Y-11790078D02*
X5818277Y-11771031D01*
X5818277Y-11771031D02*
X5827801Y-11761507D01*
X5827801Y-11761507D02*
X5846849Y-11751983D01*
X6151611Y-11951983D02*
X6151611Y-11751983D01*
X6237325Y-11951983D02*
X6237325Y-11847221D01*
X6237325Y-11847221D02*
X6227801Y-11828173D01*
X6227801Y-11828173D02*
X6208753Y-11818650D01*
X6208753Y-11818650D02*
X6180182Y-11818650D01*
X6180182Y-11818650D02*
X6161134Y-11828173D01*
X6161134Y-11828173D02*
X6151611Y-11837697D01*
X6361134Y-11951983D02*
X6342087Y-11942459D01*
X6342087Y-11942459D02*
X6332563Y-11932935D01*
X6332563Y-11932935D02*
X6323039Y-11913888D01*
X6323039Y-11913888D02*
X6323039Y-11856745D01*
X6323039Y-11856745D02*
X6332563Y-11837697D01*
X6332563Y-11837697D02*
X6342087Y-11828173D01*
X6342087Y-11828173D02*
X6361134Y-11818650D01*
X6361134Y-11818650D02*
X6389706Y-11818650D01*
X6389706Y-11818650D02*
X6408753Y-11828173D01*
X6408753Y-11828173D02*
X6418277Y-11837697D01*
X6418277Y-11837697D02*
X6427801Y-11856745D01*
X6427801Y-11856745D02*
X6427801Y-11913888D01*
X6427801Y-11913888D02*
X6418277Y-11932935D01*
X6418277Y-11932935D02*
X6408753Y-11942459D01*
X6408753Y-11942459D02*
X6389706Y-11951983D01*
X6389706Y-11951983D02*
X6361134Y-11951983D01*
X6542087Y-11951983D02*
X6523039Y-11942459D01*
X6523039Y-11942459D02*
X6513515Y-11923412D01*
X6513515Y-11923412D02*
X6513515Y-11751983D01*
X6694468Y-11942459D02*
X6675420Y-11951983D01*
X6675420Y-11951983D02*
X6637325Y-11951983D01*
X6637325Y-11951983D02*
X6618277Y-11942459D01*
X6618277Y-11942459D02*
X6608753Y-11923412D01*
X6608753Y-11923412D02*
X6608753Y-11847221D01*
X6608753Y-11847221D02*
X6618277Y-11828173D01*
X6618277Y-11828173D02*
X6637325Y-11818650D01*
X6637325Y-11818650D02*
X6675420Y-11818650D01*
X6675420Y-11818650D02*
X6694468Y-11828173D01*
X6694468Y-11828173D02*
X6703992Y-11847221D01*
X6703992Y-11847221D02*
X6703992Y-11866269D01*
X6703992Y-11866269D02*
X6608753Y-11885316D01*
X6780182Y-11942459D02*
X6799230Y-11951983D01*
X6799230Y-11951983D02*
X6837325Y-11951983D01*
X6837325Y-11951983D02*
X6856373Y-11942459D01*
X6856373Y-11942459D02*
X6865896Y-11923412D01*
X6865896Y-11923412D02*
X6865896Y-11913888D01*
X6865896Y-11913888D02*
X6856373Y-11894840D01*
X6856373Y-11894840D02*
X6837325Y-11885316D01*
X6837325Y-11885316D02*
X6808753Y-11885316D01*
X6808753Y-11885316D02*
X6789706Y-11875793D01*
X6789706Y-11875793D02*
X6780182Y-11856745D01*
X6780182Y-11856745D02*
X6780182Y-11847221D01*
X6780182Y-11847221D02*
X6789706Y-11828173D01*
X6789706Y-11828173D02*
X6808753Y-11818650D01*
X6808753Y-11818650D02*
X6837325Y-11818650D01*
X6837325Y-11818650D02*
X6856373Y-11828173D01*
X7103992Y-11875793D02*
X7256373Y-11875793D01*
X7180182Y-11951983D02*
X7180182Y-11799602D01*
X7589706Y-11818650D02*
X7589706Y-11951983D01*
X7542087Y-11742459D02*
X7494468Y-11885316D01*
X7494468Y-11885316D02*
X7618277Y-11885316D01*
X7837325Y-11942459D02*
X7856373Y-11951983D01*
X7856373Y-11951983D02*
X7894468Y-11951983D01*
X7894468Y-11951983D02*
X7913516Y-11942459D01*
X7913516Y-11942459D02*
X7923039Y-11923412D01*
X7923039Y-11923412D02*
X7923039Y-11913888D01*
X7923039Y-11913888D02*
X7913516Y-11894840D01*
X7913516Y-11894840D02*
X7894468Y-11885316D01*
X7894468Y-11885316D02*
X7865896Y-11885316D01*
X7865896Y-11885316D02*
X7846849Y-11875793D01*
X7846849Y-11875793D02*
X7837325Y-11856745D01*
X7837325Y-11856745D02*
X7837325Y-11847221D01*
X7837325Y-11847221D02*
X7846849Y-11828173D01*
X7846849Y-11828173D02*
X7865896Y-11818650D01*
X7865896Y-11818650D02*
X7894468Y-11818650D01*
X7894468Y-11818650D02*
X7913516Y-11828173D01*
X8037325Y-11951983D02*
X8018277Y-11942459D01*
X8018277Y-11942459D02*
X8008754Y-11923412D01*
X8008754Y-11923412D02*
X8008754Y-11751983D01*
X8142087Y-11951983D02*
X8123039Y-11942459D01*
X8123039Y-11942459D02*
X8113516Y-11932935D01*
X8113516Y-11932935D02*
X8103992Y-11913888D01*
X8103992Y-11913888D02*
X8103992Y-11856745D01*
X8103992Y-11856745D02*
X8113516Y-11837697D01*
X8113516Y-11837697D02*
X8123039Y-11828173D01*
X8123039Y-11828173D02*
X8142087Y-11818650D01*
X8142087Y-11818650D02*
X8170658Y-11818650D01*
X8170658Y-11818650D02*
X8189706Y-11828173D01*
X8189706Y-11828173D02*
X8199230Y-11837697D01*
X8199230Y-11837697D02*
X8208754Y-11856745D01*
X8208754Y-11856745D02*
X8208754Y-11913888D01*
X8208754Y-11913888D02*
X8199230Y-11932935D01*
X8199230Y-11932935D02*
X8189706Y-11942459D01*
X8189706Y-11942459D02*
X8170658Y-11951983D01*
X8170658Y-11951983D02*
X8142087Y-11951983D01*
X8265897Y-11818650D02*
X8342087Y-11818650D01*
X8294468Y-11751983D02*
X8294468Y-11923412D01*
X8294468Y-11923412D02*
X8303992Y-11942459D01*
X8303992Y-11942459D02*
X8323039Y-11951983D01*
X8323039Y-11951983D02*
X8342087Y-11951983D01*
X8399230Y-11942459D02*
X8418278Y-11951983D01*
X8418278Y-11951983D02*
X8456373Y-11951983D01*
X8456373Y-11951983D02*
X8475420Y-11942459D01*
X8475420Y-11942459D02*
X8484944Y-11923412D01*
X8484944Y-11923412D02*
X8484944Y-11913888D01*
X8484944Y-11913888D02*
X8475420Y-11894840D01*
X8475420Y-11894840D02*
X8456373Y-11885316D01*
X8456373Y-11885316D02*
X8427801Y-11885316D01*
X8427801Y-11885316D02*
X8408754Y-11875793D01*
X8408754Y-11875793D02*
X8399230Y-11856745D01*
X8399230Y-11856745D02*
X8399230Y-11847221D01*
X8399230Y-11847221D02*
X8408754Y-11828173D01*
X8408754Y-11828173D02*
X8427801Y-11818650D01*
X8427801Y-11818650D02*
X8456373Y-11818650D01*
X8456373Y-11818650D02*
X8475420Y-11828173D01*
X8551611Y-12028173D02*
X8561135Y-12018650D01*
X8561135Y-12018650D02*
X8580182Y-11990078D01*
X8580182Y-11990078D02*
X8589706Y-11971031D01*
X8589706Y-11971031D02*
X8599230Y-11942459D01*
X8599230Y-11942459D02*
X8608754Y-11894840D01*
X8608754Y-11894840D02*
X8608754Y-11856745D01*
X8608754Y-11856745D02*
X8599230Y-11809126D01*
X8599230Y-11809126D02*
X8589706Y-11780554D01*
X8589706Y-11780554D02*
X8580182Y-11761507D01*
X8580182Y-11761507D02*
X8561135Y-11732935D01*
X8561135Y-11732935D02*
X8551611Y-11723412D01*
D12*
X2146517Y-12151016D02*
X2146517Y-12097982D01*
X2093483Y-12097982D01*
X2093483Y-12151016D01*
X2146517Y-12151016D01*
D11*
X2456372Y-12015983D02*
X2475420Y-12015983D01*
X2475420Y-12015983D02*
X2494467Y-12025507D01*
X2494467Y-12025507D02*
X2503991Y-12035031D01*
X2503991Y-12035031D02*
X2513515Y-12054078D01*
X2513515Y-12054078D02*
X2523039Y-12092173D01*
X2523039Y-12092173D02*
X2523039Y-12139793D01*
X2523039Y-12139793D02*
X2513515Y-12177888D01*
X2513515Y-12177888D02*
X2503991Y-12196935D01*
X2503991Y-12196935D02*
X2494467Y-12206459D01*
X2494467Y-12206459D02*
X2475420Y-12215983D01*
X2475420Y-12215983D02*
X2456372Y-12215983D01*
X2456372Y-12215983D02*
X2437325Y-12206459D01*
X2437325Y-12206459D02*
X2427801Y-12196935D01*
X2427801Y-12196935D02*
X2418277Y-12177888D01*
X2418277Y-12177888D02*
X2408753Y-12139793D01*
X2408753Y-12139793D02*
X2408753Y-12092173D01*
X2408753Y-12092173D02*
X2418277Y-12054078D01*
X2418277Y-12054078D02*
X2427801Y-12035031D01*
X2427801Y-12035031D02*
X2437325Y-12025507D01*
X2437325Y-12025507D02*
X2456372Y-12015983D01*
X2608753Y-12196935D02*
X2618277Y-12206459D01*
X2618277Y-12206459D02*
X2608753Y-12215983D01*
X2608753Y-12215983D02*
X2599229Y-12206459D01*
X2599229Y-12206459D02*
X2608753Y-12196935D01*
X2608753Y-12196935D02*
X2608753Y-12215983D01*
X2684944Y-12015983D02*
X2818277Y-12015983D01*
X2818277Y-12015983D02*
X2732563Y-12215983D01*
X2989705Y-12015983D02*
X2894467Y-12015983D01*
X2894467Y-12015983D02*
X2884944Y-12111221D01*
X2884944Y-12111221D02*
X2894467Y-12101697D01*
X2894467Y-12101697D02*
X2913515Y-12092173D01*
X2913515Y-12092173D02*
X2961134Y-12092173D01*
X2961134Y-12092173D02*
X2980182Y-12101697D01*
X2980182Y-12101697D02*
X2989705Y-12111221D01*
X2989705Y-12111221D02*
X2999229Y-12130269D01*
X2999229Y-12130269D02*
X2999229Y-12177888D01*
X2999229Y-12177888D02*
X2989705Y-12196935D01*
X2989705Y-12196935D02*
X2980182Y-12206459D01*
X2980182Y-12206459D02*
X2961134Y-12215983D01*
X2961134Y-12215983D02*
X2913515Y-12215983D01*
X2913515Y-12215983D02*
X2894467Y-12206459D01*
X2894467Y-12206459D02*
X2884944Y-12196935D01*
X3123039Y-12015983D02*
X3142086Y-12015983D01*
X3142086Y-12015983D02*
X3161134Y-12025507D01*
X3161134Y-12025507D02*
X3170658Y-12035031D01*
X3170658Y-12035031D02*
X3180182Y-12054078D01*
X3180182Y-12054078D02*
X3189705Y-12092173D01*
X3189705Y-12092173D02*
X3189705Y-12139793D01*
X3189705Y-12139793D02*
X3180182Y-12177888D01*
X3180182Y-12177888D02*
X3170658Y-12196935D01*
X3170658Y-12196935D02*
X3161134Y-12206459D01*
X3161134Y-12206459D02*
X3142086Y-12215983D01*
X3142086Y-12215983D02*
X3123039Y-12215983D01*
X3123039Y-12215983D02*
X3103991Y-12206459D01*
X3103991Y-12206459D02*
X3094467Y-12196935D01*
X3094467Y-12196935D02*
X3084944Y-12177888D01*
X3084944Y-12177888D02*
X3075420Y-12139793D01*
X3075420Y-12139793D02*
X3075420Y-12092173D01*
X3075420Y-12092173D02*
X3084944Y-12054078D01*
X3084944Y-12054078D02*
X3094467Y-12035031D01*
X3094467Y-12035031D02*
X3103991Y-12025507D01*
X3103991Y-12025507D02*
X3123039Y-12015983D01*
X3275420Y-12215983D02*
X3275420Y-12082650D01*
X3275420Y-12101697D02*
X3284944Y-12092173D01*
X3284944Y-12092173D02*
X3303991Y-12082650D01*
X3303991Y-12082650D02*
X3332563Y-12082650D01*
X3332563Y-12082650D02*
X3351610Y-12092173D01*
X3351610Y-12092173D02*
X3361134Y-12111221D01*
X3361134Y-12111221D02*
X3361134Y-12215983D01*
X3361134Y-12111221D02*
X3370658Y-12092173D01*
X3370658Y-12092173D02*
X3389705Y-12082650D01*
X3389705Y-12082650D02*
X3418277Y-12082650D01*
X3418277Y-12082650D02*
X3437325Y-12092173D01*
X3437325Y-12092173D02*
X3446848Y-12111221D01*
X3446848Y-12111221D02*
X3446848Y-12215983D01*
X3542086Y-12215983D02*
X3542086Y-12082650D01*
X3542086Y-12101697D02*
X3551610Y-12092173D01*
X3551610Y-12092173D02*
X3570658Y-12082650D01*
X3570658Y-12082650D02*
X3599229Y-12082650D01*
X3599229Y-12082650D02*
X3618277Y-12092173D01*
X3618277Y-12092173D02*
X3627801Y-12111221D01*
X3627801Y-12111221D02*
X3627801Y-12215983D01*
X3627801Y-12111221D02*
X3637325Y-12092173D01*
X3637325Y-12092173D02*
X3656372Y-12082650D01*
X3656372Y-12082650D02*
X3684944Y-12082650D01*
X3684944Y-12082650D02*
X3703991Y-12092173D01*
X3703991Y-12092173D02*
X3713515Y-12111221D01*
X3713515Y-12111221D02*
X3713515Y-12215983D01*
X4103991Y-12006459D02*
X3932563Y-12263602D01*
X4361134Y-12015983D02*
X4380182Y-12015983D01*
X4380182Y-12015983D02*
X4399230Y-12025507D01*
X4399230Y-12025507D02*
X4408753Y-12035031D01*
X4408753Y-12035031D02*
X4418277Y-12054078D01*
X4418277Y-12054078D02*
X4427801Y-12092173D01*
X4427801Y-12092173D02*
X4427801Y-12139793D01*
X4427801Y-12139793D02*
X4418277Y-12177888D01*
X4418277Y-12177888D02*
X4408753Y-12196935D01*
X4408753Y-12196935D02*
X4399230Y-12206459D01*
X4399230Y-12206459D02*
X4380182Y-12215983D01*
X4380182Y-12215983D02*
X4361134Y-12215983D01*
X4361134Y-12215983D02*
X4342087Y-12206459D01*
X4342087Y-12206459D02*
X4332563Y-12196935D01*
X4332563Y-12196935D02*
X4323039Y-12177888D01*
X4323039Y-12177888D02*
X4313515Y-12139793D01*
X4313515Y-12139793D02*
X4313515Y-12092173D01*
X4313515Y-12092173D02*
X4323039Y-12054078D01*
X4323039Y-12054078D02*
X4332563Y-12035031D01*
X4332563Y-12035031D02*
X4342087Y-12025507D01*
X4342087Y-12025507D02*
X4361134Y-12015983D01*
X4513515Y-12196935D02*
X4523039Y-12206459D01*
X4523039Y-12206459D02*
X4513515Y-12215983D01*
X4513515Y-12215983D02*
X4503991Y-12206459D01*
X4503991Y-12206459D02*
X4513515Y-12196935D01*
X4513515Y-12196935D02*
X4513515Y-12215983D01*
X4646849Y-12015983D02*
X4665896Y-12015983D01*
X4665896Y-12015983D02*
X4684944Y-12025507D01*
X4684944Y-12025507D02*
X4694468Y-12035031D01*
X4694468Y-12035031D02*
X4703991Y-12054078D01*
X4703991Y-12054078D02*
X4713515Y-12092173D01*
X4713515Y-12092173D02*
X4713515Y-12139793D01*
X4713515Y-12139793D02*
X4703991Y-12177888D01*
X4703991Y-12177888D02*
X4694468Y-12196935D01*
X4694468Y-12196935D02*
X4684944Y-12206459D01*
X4684944Y-12206459D02*
X4665896Y-12215983D01*
X4665896Y-12215983D02*
X4646849Y-12215983D01*
X4646849Y-12215983D02*
X4627801Y-12206459D01*
X4627801Y-12206459D02*
X4618277Y-12196935D01*
X4618277Y-12196935D02*
X4608753Y-12177888D01*
X4608753Y-12177888D02*
X4599230Y-12139793D01*
X4599230Y-12139793D02*
X4599230Y-12092173D01*
X4599230Y-12092173D02*
X4608753Y-12054078D01*
X4608753Y-12054078D02*
X4618277Y-12035031D01*
X4618277Y-12035031D02*
X4627801Y-12025507D01*
X4627801Y-12025507D02*
X4646849Y-12015983D01*
X4789706Y-12035031D02*
X4799230Y-12025507D01*
X4799230Y-12025507D02*
X4818277Y-12015983D01*
X4818277Y-12015983D02*
X4865896Y-12015983D01*
X4865896Y-12015983D02*
X4884944Y-12025507D01*
X4884944Y-12025507D02*
X4894468Y-12035031D01*
X4894468Y-12035031D02*
X4903991Y-12054078D01*
X4903991Y-12054078D02*
X4903991Y-12073126D01*
X4903991Y-12073126D02*
X4894468Y-12101697D01*
X4894468Y-12101697D02*
X4780182Y-12215983D01*
X4780182Y-12215983D02*
X4903991Y-12215983D01*
X4999230Y-12215983D02*
X5037325Y-12215983D01*
X5037325Y-12215983D02*
X5056372Y-12206459D01*
X5056372Y-12206459D02*
X5065896Y-12196935D01*
X5065896Y-12196935D02*
X5084944Y-12168364D01*
X5084944Y-12168364D02*
X5094468Y-12130269D01*
X5094468Y-12130269D02*
X5094468Y-12054078D01*
X5094468Y-12054078D02*
X5084944Y-12035031D01*
X5084944Y-12035031D02*
X5075420Y-12025507D01*
X5075420Y-12025507D02*
X5056372Y-12015983D01*
X5056372Y-12015983D02*
X5018277Y-12015983D01*
X5018277Y-12015983D02*
X4999230Y-12025507D01*
X4999230Y-12025507D02*
X4989706Y-12035031D01*
X4989706Y-12035031D02*
X4980182Y-12054078D01*
X4980182Y-12054078D02*
X4980182Y-12101697D01*
X4980182Y-12101697D02*
X4989706Y-12120745D01*
X4989706Y-12120745D02*
X4999230Y-12130269D01*
X4999230Y-12130269D02*
X5018277Y-12139793D01*
X5018277Y-12139793D02*
X5056372Y-12139793D01*
X5056372Y-12139793D02*
X5075420Y-12130269D01*
X5075420Y-12130269D02*
X5084944Y-12120745D01*
X5084944Y-12120745D02*
X5094468Y-12101697D01*
X5275420Y-12015983D02*
X5180182Y-12015983D01*
X5180182Y-12015983D02*
X5170658Y-12111221D01*
X5170658Y-12111221D02*
X5180182Y-12101697D01*
X5180182Y-12101697D02*
X5199230Y-12092173D01*
X5199230Y-12092173D02*
X5246849Y-12092173D01*
X5246849Y-12092173D02*
X5265896Y-12101697D01*
X5265896Y-12101697D02*
X5275420Y-12111221D01*
X5275420Y-12111221D02*
X5284944Y-12130269D01*
X5284944Y-12130269D02*
X5284944Y-12177888D01*
X5284944Y-12177888D02*
X5275420Y-12196935D01*
X5275420Y-12196935D02*
X5265896Y-12206459D01*
X5265896Y-12206459D02*
X5246849Y-12215983D01*
X5246849Y-12215983D02*
X5199230Y-12215983D01*
X5199230Y-12215983D02*
X5180182Y-12206459D01*
X5180182Y-12206459D02*
X5170658Y-12196935D01*
X5361134Y-12015983D02*
X5361134Y-12054078D01*
X5437325Y-12015983D02*
X5437325Y-12054078D01*
X5732563Y-12292173D02*
X5723039Y-12282650D01*
X5723039Y-12282650D02*
X5703991Y-12254078D01*
X5703991Y-12254078D02*
X5694468Y-12235031D01*
X5694468Y-12235031D02*
X5684944Y-12206459D01*
X5684944Y-12206459D02*
X5675420Y-12158840D01*
X5675420Y-12158840D02*
X5675420Y-12120745D01*
X5675420Y-12120745D02*
X5684944Y-12073126D01*
X5684944Y-12073126D02*
X5694468Y-12044554D01*
X5694468Y-12044554D02*
X5703991Y-12025507D01*
X5703991Y-12025507D02*
X5723039Y-11996935D01*
X5723039Y-11996935D02*
X5732563Y-11987412D01*
X5799230Y-12035031D02*
X5808753Y-12025507D01*
X5808753Y-12025507D02*
X5827801Y-12015983D01*
X5827801Y-12015983D02*
X5875420Y-12015983D01*
X5875420Y-12015983D02*
X5894468Y-12025507D01*
X5894468Y-12025507D02*
X5903991Y-12035031D01*
X5903991Y-12035031D02*
X5913515Y-12054078D01*
X5913515Y-12054078D02*
X5913515Y-12073126D01*
X5913515Y-12073126D02*
X5903991Y-12101697D01*
X5903991Y-12101697D02*
X5789706Y-12215983D01*
X5789706Y-12215983D02*
X5913515Y-12215983D01*
X6151611Y-12215983D02*
X6151611Y-12015983D01*
X6237325Y-12215983D02*
X6237325Y-12111221D01*
X6237325Y-12111221D02*
X6227801Y-12092173D01*
X6227801Y-12092173D02*
X6208753Y-12082650D01*
X6208753Y-12082650D02*
X6180182Y-12082650D01*
X6180182Y-12082650D02*
X6161134Y-12092173D01*
X6161134Y-12092173D02*
X6151611Y-12101697D01*
X6361134Y-12215983D02*
X6342087Y-12206459D01*
X6342087Y-12206459D02*
X6332563Y-12196935D01*
X6332563Y-12196935D02*
X6323039Y-12177888D01*
X6323039Y-12177888D02*
X6323039Y-12120745D01*
X6323039Y-12120745D02*
X6332563Y-12101697D01*
X6332563Y-12101697D02*
X6342087Y-12092173D01*
X6342087Y-12092173D02*
X6361134Y-12082650D01*
X6361134Y-12082650D02*
X6389706Y-12082650D01*
X6389706Y-12082650D02*
X6408753Y-12092173D01*
X6408753Y-12092173D02*
X6418277Y-12101697D01*
X6418277Y-12101697D02*
X6427801Y-12120745D01*
X6427801Y-12120745D02*
X6427801Y-12177888D01*
X6427801Y-12177888D02*
X6418277Y-12196935D01*
X6418277Y-12196935D02*
X6408753Y-12206459D01*
X6408753Y-12206459D02*
X6389706Y-12215983D01*
X6389706Y-12215983D02*
X6361134Y-12215983D01*
X6542087Y-12215983D02*
X6523039Y-12206459D01*
X6523039Y-12206459D02*
X6513515Y-12187412D01*
X6513515Y-12187412D02*
X6513515Y-12015983D01*
X6694468Y-12206459D02*
X6675420Y-12215983D01*
X6675420Y-12215983D02*
X6637325Y-12215983D01*
X6637325Y-12215983D02*
X6618277Y-12206459D01*
X6618277Y-12206459D02*
X6608753Y-12187412D01*
X6608753Y-12187412D02*
X6608753Y-12111221D01*
X6608753Y-12111221D02*
X6618277Y-12092173D01*
X6618277Y-12092173D02*
X6637325Y-12082650D01*
X6637325Y-12082650D02*
X6675420Y-12082650D01*
X6675420Y-12082650D02*
X6694468Y-12092173D01*
X6694468Y-12092173D02*
X6703992Y-12111221D01*
X6703992Y-12111221D02*
X6703992Y-12130269D01*
X6703992Y-12130269D02*
X6608753Y-12149316D01*
X6780182Y-12206459D02*
X6799230Y-12215983D01*
X6799230Y-12215983D02*
X6837325Y-12215983D01*
X6837325Y-12215983D02*
X6856373Y-12206459D01*
X6856373Y-12206459D02*
X6865896Y-12187412D01*
X6865896Y-12187412D02*
X6865896Y-12177888D01*
X6865896Y-12177888D02*
X6856373Y-12158840D01*
X6856373Y-12158840D02*
X6837325Y-12149316D01*
X6837325Y-12149316D02*
X6808753Y-12149316D01*
X6808753Y-12149316D02*
X6789706Y-12139793D01*
X6789706Y-12139793D02*
X6780182Y-12120745D01*
X6780182Y-12120745D02*
X6780182Y-12111221D01*
X6780182Y-12111221D02*
X6789706Y-12092173D01*
X6789706Y-12092173D02*
X6808753Y-12082650D01*
X6808753Y-12082650D02*
X6837325Y-12082650D01*
X6837325Y-12082650D02*
X6856373Y-12092173D01*
X6932563Y-12292173D02*
X6942087Y-12282650D01*
X6942087Y-12282650D02*
X6961134Y-12254078D01*
X6961134Y-12254078D02*
X6970658Y-12235031D01*
X6970658Y-12235031D02*
X6980182Y-12206459D01*
X6980182Y-12206459D02*
X6989706Y-12158840D01*
X6989706Y-12158840D02*
X6989706Y-12120745D01*
X6989706Y-12120745D02*
X6980182Y-12073126D01*
X6980182Y-12073126D02*
X6970658Y-12044554D01*
X6970658Y-12044554D02*
X6961134Y-12025507D01*
X6961134Y-12025507D02*
X6942087Y-11996935D01*
X6942087Y-11996935D02*
X6932563Y-11987412D01*
D12*
X2112500Y-12433499D02*
X2157500Y-12388499D01*
X2112500Y-12343499D01*
X2067500Y-12388499D01*
X2112500Y-12433499D01*
D11*
X2456372Y-12279983D02*
X2475420Y-12279983D01*
X2475420Y-12279983D02*
X2494467Y-12289507D01*
X2494467Y-12289507D02*
X2503991Y-12299031D01*
X2503991Y-12299031D02*
X2513515Y-12318078D01*
X2513515Y-12318078D02*
X2523039Y-12356173D01*
X2523039Y-12356173D02*
X2523039Y-12403793D01*
X2523039Y-12403793D02*
X2513515Y-12441888D01*
X2513515Y-12441888D02*
X2503991Y-12460935D01*
X2503991Y-12460935D02*
X2494467Y-12470459D01*
X2494467Y-12470459D02*
X2475420Y-12479983D01*
X2475420Y-12479983D02*
X2456372Y-12479983D01*
X2456372Y-12479983D02*
X2437325Y-12470459D01*
X2437325Y-12470459D02*
X2427801Y-12460935D01*
X2427801Y-12460935D02*
X2418277Y-12441888D01*
X2418277Y-12441888D02*
X2408753Y-12403793D01*
X2408753Y-12403793D02*
X2408753Y-12356173D01*
X2408753Y-12356173D02*
X2418277Y-12318078D01*
X2418277Y-12318078D02*
X2427801Y-12299031D01*
X2427801Y-12299031D02*
X2437325Y-12289507D01*
X2437325Y-12289507D02*
X2456372Y-12279983D01*
X2608753Y-12460935D02*
X2618277Y-12470459D01*
X2618277Y-12470459D02*
X2608753Y-12479983D01*
X2608753Y-12479983D02*
X2599229Y-12470459D01*
X2599229Y-12470459D02*
X2608753Y-12460935D01*
X2608753Y-12460935D02*
X2608753Y-12479983D01*
X2713515Y-12479983D02*
X2751610Y-12479983D01*
X2751610Y-12479983D02*
X2770658Y-12470459D01*
X2770658Y-12470459D02*
X2780182Y-12460935D01*
X2780182Y-12460935D02*
X2799229Y-12432364D01*
X2799229Y-12432364D02*
X2808753Y-12394269D01*
X2808753Y-12394269D02*
X2808753Y-12318078D01*
X2808753Y-12318078D02*
X2799229Y-12299031D01*
X2799229Y-12299031D02*
X2789706Y-12289507D01*
X2789706Y-12289507D02*
X2770658Y-12279983D01*
X2770658Y-12279983D02*
X2732563Y-12279983D01*
X2732563Y-12279983D02*
X2713515Y-12289507D01*
X2713515Y-12289507D02*
X2703991Y-12299031D01*
X2703991Y-12299031D02*
X2694467Y-12318078D01*
X2694467Y-12318078D02*
X2694467Y-12365697D01*
X2694467Y-12365697D02*
X2703991Y-12384745D01*
X2703991Y-12384745D02*
X2713515Y-12394269D01*
X2713515Y-12394269D02*
X2732563Y-12403793D01*
X2732563Y-12403793D02*
X2770658Y-12403793D01*
X2770658Y-12403793D02*
X2789706Y-12394269D01*
X2789706Y-12394269D02*
X2799229Y-12384745D01*
X2799229Y-12384745D02*
X2808753Y-12365697D01*
X2932563Y-12279983D02*
X2951610Y-12279983D01*
X2951610Y-12279983D02*
X2970658Y-12289507D01*
X2970658Y-12289507D02*
X2980182Y-12299031D01*
X2980182Y-12299031D02*
X2989705Y-12318078D01*
X2989705Y-12318078D02*
X2999229Y-12356173D01*
X2999229Y-12356173D02*
X2999229Y-12403793D01*
X2999229Y-12403793D02*
X2989705Y-12441888D01*
X2989705Y-12441888D02*
X2980182Y-12460935D01*
X2980182Y-12460935D02*
X2970658Y-12470459D01*
X2970658Y-12470459D02*
X2951610Y-12479983D01*
X2951610Y-12479983D02*
X2932563Y-12479983D01*
X2932563Y-12479983D02*
X2913515Y-12470459D01*
X2913515Y-12470459D02*
X2903991Y-12460935D01*
X2903991Y-12460935D02*
X2894467Y-12441888D01*
X2894467Y-12441888D02*
X2884944Y-12403793D01*
X2884944Y-12403793D02*
X2884944Y-12356173D01*
X2884944Y-12356173D02*
X2894467Y-12318078D01*
X2894467Y-12318078D02*
X2903991Y-12299031D01*
X2903991Y-12299031D02*
X2913515Y-12289507D01*
X2913515Y-12289507D02*
X2932563Y-12279983D01*
X3123039Y-12279983D02*
X3142086Y-12279983D01*
X3142086Y-12279983D02*
X3161134Y-12289507D01*
X3161134Y-12289507D02*
X3170658Y-12299031D01*
X3170658Y-12299031D02*
X3180182Y-12318078D01*
X3180182Y-12318078D02*
X3189705Y-12356173D01*
X3189705Y-12356173D02*
X3189705Y-12403793D01*
X3189705Y-12403793D02*
X3180182Y-12441888D01*
X3180182Y-12441888D02*
X3170658Y-12460935D01*
X3170658Y-12460935D02*
X3161134Y-12470459D01*
X3161134Y-12470459D02*
X3142086Y-12479983D01*
X3142086Y-12479983D02*
X3123039Y-12479983D01*
X3123039Y-12479983D02*
X3103991Y-12470459D01*
X3103991Y-12470459D02*
X3094467Y-12460935D01*
X3094467Y-12460935D02*
X3084944Y-12441888D01*
X3084944Y-12441888D02*
X3075420Y-12403793D01*
X3075420Y-12403793D02*
X3075420Y-12356173D01*
X3075420Y-12356173D02*
X3084944Y-12318078D01*
X3084944Y-12318078D02*
X3094467Y-12299031D01*
X3094467Y-12299031D02*
X3103991Y-12289507D01*
X3103991Y-12289507D02*
X3123039Y-12279983D01*
X3275420Y-12479983D02*
X3275420Y-12346650D01*
X3275420Y-12365697D02*
X3284944Y-12356173D01*
X3284944Y-12356173D02*
X3303991Y-12346650D01*
X3303991Y-12346650D02*
X3332563Y-12346650D01*
X3332563Y-12346650D02*
X3351610Y-12356173D01*
X3351610Y-12356173D02*
X3361134Y-12375221D01*
X3361134Y-12375221D02*
X3361134Y-12479983D01*
X3361134Y-12375221D02*
X3370658Y-12356173D01*
X3370658Y-12356173D02*
X3389705Y-12346650D01*
X3389705Y-12346650D02*
X3418277Y-12346650D01*
X3418277Y-12346650D02*
X3437325Y-12356173D01*
X3437325Y-12356173D02*
X3446848Y-12375221D01*
X3446848Y-12375221D02*
X3446848Y-12479983D01*
X3542086Y-12479983D02*
X3542086Y-12346650D01*
X3542086Y-12365697D02*
X3551610Y-12356173D01*
X3551610Y-12356173D02*
X3570658Y-12346650D01*
X3570658Y-12346650D02*
X3599229Y-12346650D01*
X3599229Y-12346650D02*
X3618277Y-12356173D01*
X3618277Y-12356173D02*
X3627801Y-12375221D01*
X3627801Y-12375221D02*
X3627801Y-12479983D01*
X3627801Y-12375221D02*
X3637325Y-12356173D01*
X3637325Y-12356173D02*
X3656372Y-12346650D01*
X3656372Y-12346650D02*
X3684944Y-12346650D01*
X3684944Y-12346650D02*
X3703991Y-12356173D01*
X3703991Y-12356173D02*
X3713515Y-12375221D01*
X3713515Y-12375221D02*
X3713515Y-12479983D01*
X4103991Y-12270459D02*
X3932563Y-12527602D01*
X4361134Y-12279983D02*
X4380182Y-12279983D01*
X4380182Y-12279983D02*
X4399230Y-12289507D01*
X4399230Y-12289507D02*
X4408753Y-12299031D01*
X4408753Y-12299031D02*
X4418277Y-12318078D01*
X4418277Y-12318078D02*
X4427801Y-12356173D01*
X4427801Y-12356173D02*
X4427801Y-12403793D01*
X4427801Y-12403793D02*
X4418277Y-12441888D01*
X4418277Y-12441888D02*
X4408753Y-12460935D01*
X4408753Y-12460935D02*
X4399230Y-12470459D01*
X4399230Y-12470459D02*
X4380182Y-12479983D01*
X4380182Y-12479983D02*
X4361134Y-12479983D01*
X4361134Y-12479983D02*
X4342087Y-12470459D01*
X4342087Y-12470459D02*
X4332563Y-12460935D01*
X4332563Y-12460935D02*
X4323039Y-12441888D01*
X4323039Y-12441888D02*
X4313515Y-12403793D01*
X4313515Y-12403793D02*
X4313515Y-12356173D01*
X4313515Y-12356173D02*
X4323039Y-12318078D01*
X4323039Y-12318078D02*
X4332563Y-12299031D01*
X4332563Y-12299031D02*
X4342087Y-12289507D01*
X4342087Y-12289507D02*
X4361134Y-12279983D01*
X4513515Y-12460935D02*
X4523039Y-12470459D01*
X4523039Y-12470459D02*
X4513515Y-12479983D01*
X4513515Y-12479983D02*
X4503991Y-12470459D01*
X4503991Y-12470459D02*
X4513515Y-12460935D01*
X4513515Y-12460935D02*
X4513515Y-12479983D01*
X4646849Y-12279983D02*
X4665896Y-12279983D01*
X4665896Y-12279983D02*
X4684944Y-12289507D01*
X4684944Y-12289507D02*
X4694468Y-12299031D01*
X4694468Y-12299031D02*
X4703991Y-12318078D01*
X4703991Y-12318078D02*
X4713515Y-12356173D01*
X4713515Y-12356173D02*
X4713515Y-12403793D01*
X4713515Y-12403793D02*
X4703991Y-12441888D01*
X4703991Y-12441888D02*
X4694468Y-12460935D01*
X4694468Y-12460935D02*
X4684944Y-12470459D01*
X4684944Y-12470459D02*
X4665896Y-12479983D01*
X4665896Y-12479983D02*
X4646849Y-12479983D01*
X4646849Y-12479983D02*
X4627801Y-12470459D01*
X4627801Y-12470459D02*
X4618277Y-12460935D01*
X4618277Y-12460935D02*
X4608753Y-12441888D01*
X4608753Y-12441888D02*
X4599230Y-12403793D01*
X4599230Y-12403793D02*
X4599230Y-12356173D01*
X4599230Y-12356173D02*
X4608753Y-12318078D01*
X4608753Y-12318078D02*
X4618277Y-12299031D01*
X4618277Y-12299031D02*
X4627801Y-12289507D01*
X4627801Y-12289507D02*
X4646849Y-12279983D01*
X4780182Y-12279983D02*
X4903991Y-12279983D01*
X4903991Y-12279983D02*
X4837325Y-12356173D01*
X4837325Y-12356173D02*
X4865896Y-12356173D01*
X4865896Y-12356173D02*
X4884944Y-12365697D01*
X4884944Y-12365697D02*
X4894468Y-12375221D01*
X4894468Y-12375221D02*
X4903991Y-12394269D01*
X4903991Y-12394269D02*
X4903991Y-12441888D01*
X4903991Y-12441888D02*
X4894468Y-12460935D01*
X4894468Y-12460935D02*
X4884944Y-12470459D01*
X4884944Y-12470459D02*
X4865896Y-12479983D01*
X4865896Y-12479983D02*
X4808753Y-12479983D01*
X4808753Y-12479983D02*
X4789706Y-12470459D01*
X4789706Y-12470459D02*
X4780182Y-12460935D01*
X5084944Y-12279983D02*
X4989706Y-12279983D01*
X4989706Y-12279983D02*
X4980182Y-12375221D01*
X4980182Y-12375221D02*
X4989706Y-12365697D01*
X4989706Y-12365697D02*
X5008753Y-12356173D01*
X5008753Y-12356173D02*
X5056372Y-12356173D01*
X5056372Y-12356173D02*
X5075420Y-12365697D01*
X5075420Y-12365697D02*
X5084944Y-12375221D01*
X5084944Y-12375221D02*
X5094468Y-12394269D01*
X5094468Y-12394269D02*
X5094468Y-12441888D01*
X5094468Y-12441888D02*
X5084944Y-12460935D01*
X5084944Y-12460935D02*
X5075420Y-12470459D01*
X5075420Y-12470459D02*
X5056372Y-12479983D01*
X5056372Y-12479983D02*
X5008753Y-12479983D01*
X5008753Y-12479983D02*
X4989706Y-12470459D01*
X4989706Y-12470459D02*
X4980182Y-12460935D01*
X5265896Y-12346650D02*
X5265896Y-12479983D01*
X5218277Y-12270459D02*
X5170658Y-12413316D01*
X5170658Y-12413316D02*
X5294468Y-12413316D01*
X5361134Y-12279983D02*
X5361134Y-12318078D01*
X5437325Y-12279983D02*
X5437325Y-12318078D01*
X5732563Y-12556173D02*
X5723039Y-12546650D01*
X5723039Y-12546650D02*
X5703991Y-12518078D01*
X5703991Y-12518078D02*
X5694468Y-12499031D01*
X5694468Y-12499031D02*
X5684944Y-12470459D01*
X5684944Y-12470459D02*
X5675420Y-12422840D01*
X5675420Y-12422840D02*
X5675420Y-12384745D01*
X5675420Y-12384745D02*
X5684944Y-12337126D01*
X5684944Y-12337126D02*
X5694468Y-12308554D01*
X5694468Y-12308554D02*
X5703991Y-12289507D01*
X5703991Y-12289507D02*
X5723039Y-12260935D01*
X5723039Y-12260935D02*
X5732563Y-12251412D01*
X5789706Y-12279983D02*
X5913515Y-12279983D01*
X5913515Y-12279983D02*
X5846849Y-12356173D01*
X5846849Y-12356173D02*
X5875420Y-12356173D01*
X5875420Y-12356173D02*
X5894468Y-12365697D01*
X5894468Y-12365697D02*
X5903991Y-12375221D01*
X5903991Y-12375221D02*
X5913515Y-12394269D01*
X5913515Y-12394269D02*
X5913515Y-12441888D01*
X5913515Y-12441888D02*
X5903991Y-12460935D01*
X5903991Y-12460935D02*
X5894468Y-12470459D01*
X5894468Y-12470459D02*
X5875420Y-12479983D01*
X5875420Y-12479983D02*
X5818277Y-12479983D01*
X5818277Y-12479983D02*
X5799230Y-12470459D01*
X5799230Y-12470459D02*
X5789706Y-12460935D01*
X6151611Y-12479983D02*
X6151611Y-12279983D01*
X6237325Y-12479983D02*
X6237325Y-12375221D01*
X6237325Y-12375221D02*
X6227801Y-12356173D01*
X6227801Y-12356173D02*
X6208753Y-12346650D01*
X6208753Y-12346650D02*
X6180182Y-12346650D01*
X6180182Y-12346650D02*
X6161134Y-12356173D01*
X6161134Y-12356173D02*
X6151611Y-12365697D01*
X6361134Y-12479983D02*
X6342087Y-12470459D01*
X6342087Y-12470459D02*
X6332563Y-12460935D01*
X6332563Y-12460935D02*
X6323039Y-12441888D01*
X6323039Y-12441888D02*
X6323039Y-12384745D01*
X6323039Y-12384745D02*
X6332563Y-12365697D01*
X6332563Y-12365697D02*
X6342087Y-12356173D01*
X6342087Y-12356173D02*
X6361134Y-12346650D01*
X6361134Y-12346650D02*
X6389706Y-12346650D01*
X6389706Y-12346650D02*
X6408753Y-12356173D01*
X6408753Y-12356173D02*
X6418277Y-12365697D01*
X6418277Y-12365697D02*
X6427801Y-12384745D01*
X6427801Y-12384745D02*
X6427801Y-12441888D01*
X6427801Y-12441888D02*
X6418277Y-12460935D01*
X6418277Y-12460935D02*
X6408753Y-12470459D01*
X6408753Y-12470459D02*
X6389706Y-12479983D01*
X6389706Y-12479983D02*
X6361134Y-12479983D01*
X6542087Y-12479983D02*
X6523039Y-12470459D01*
X6523039Y-12470459D02*
X6513515Y-12451412D01*
X6513515Y-12451412D02*
X6513515Y-12279983D01*
X6694468Y-12470459D02*
X6675420Y-12479983D01*
X6675420Y-12479983D02*
X6637325Y-12479983D01*
X6637325Y-12479983D02*
X6618277Y-12470459D01*
X6618277Y-12470459D02*
X6608753Y-12451412D01*
X6608753Y-12451412D02*
X6608753Y-12375221D01*
X6608753Y-12375221D02*
X6618277Y-12356173D01*
X6618277Y-12356173D02*
X6637325Y-12346650D01*
X6637325Y-12346650D02*
X6675420Y-12346650D01*
X6675420Y-12346650D02*
X6694468Y-12356173D01*
X6694468Y-12356173D02*
X6703992Y-12375221D01*
X6703992Y-12375221D02*
X6703992Y-12394269D01*
X6703992Y-12394269D02*
X6608753Y-12413316D01*
X6780182Y-12470459D02*
X6799230Y-12479983D01*
X6799230Y-12479983D02*
X6837325Y-12479983D01*
X6837325Y-12479983D02*
X6856373Y-12470459D01*
X6856373Y-12470459D02*
X6865896Y-12451412D01*
X6865896Y-12451412D02*
X6865896Y-12441888D01*
X6865896Y-12441888D02*
X6856373Y-12422840D01*
X6856373Y-12422840D02*
X6837325Y-12413316D01*
X6837325Y-12413316D02*
X6808753Y-12413316D01*
X6808753Y-12413316D02*
X6789706Y-12403793D01*
X6789706Y-12403793D02*
X6780182Y-12384745D01*
X6780182Y-12384745D02*
X6780182Y-12375221D01*
X6780182Y-12375221D02*
X6789706Y-12356173D01*
X6789706Y-12356173D02*
X6808753Y-12346650D01*
X6808753Y-12346650D02*
X6837325Y-12346650D01*
X6837325Y-12346650D02*
X6856373Y-12356173D01*
X6932563Y-12556173D02*
X6942087Y-12546650D01*
X6942087Y-12546650D02*
X6961134Y-12518078D01*
X6961134Y-12518078D02*
X6970658Y-12499031D01*
X6970658Y-12499031D02*
X6980182Y-12470459D01*
X6980182Y-12470459D02*
X6989706Y-12422840D01*
X6989706Y-12422840D02*
X6989706Y-12384745D01*
X6989706Y-12384745D02*
X6980182Y-12337126D01*
X6980182Y-12337126D02*
X6970658Y-12308554D01*
X6970658Y-12308554D02*
X6961134Y-12289507D01*
X6961134Y-12289507D02*
X6942087Y-12260935D01*
X6942087Y-12260935D02*
X6932563Y-12251412D01*
D13*
X2007500Y-12577499D02*
X2157500Y-12727499D01*
X2157500Y-12577499D02*
X2007500Y-12727499D01*
X2157500Y-12652499D02*
G75*
G02*
X2007500Y-12652499I-75000J0D01*
G01*
X2007500Y-12652499D02*
G75*
G02*
X2157500Y-12652499I75000J0D01*
G01*
D11*
X2523039Y-12743983D02*
X2408753Y-12743983D01*
X2465896Y-12743983D02*
X2465896Y-12543983D01*
X2465896Y-12543983D02*
X2446848Y-12572554D01*
X2446848Y-12572554D02*
X2427801Y-12591602D01*
X2427801Y-12591602D02*
X2408753Y-12601126D01*
X2608753Y-12724935D02*
X2618277Y-12734459D01*
X2618277Y-12734459D02*
X2608753Y-12743983D01*
X2608753Y-12743983D02*
X2599229Y-12734459D01*
X2599229Y-12734459D02*
X2608753Y-12724935D01*
X2608753Y-12724935D02*
X2608753Y-12743983D01*
X2799229Y-12543983D02*
X2703991Y-12543983D01*
X2703991Y-12543983D02*
X2694467Y-12639221D01*
X2694467Y-12639221D02*
X2703991Y-12629697D01*
X2703991Y-12629697D02*
X2723039Y-12620173D01*
X2723039Y-12620173D02*
X2770658Y-12620173D01*
X2770658Y-12620173D02*
X2789706Y-12629697D01*
X2789706Y-12629697D02*
X2799229Y-12639221D01*
X2799229Y-12639221D02*
X2808753Y-12658269D01*
X2808753Y-12658269D02*
X2808753Y-12705888D01*
X2808753Y-12705888D02*
X2799229Y-12724935D01*
X2799229Y-12724935D02*
X2789706Y-12734459D01*
X2789706Y-12734459D02*
X2770658Y-12743983D01*
X2770658Y-12743983D02*
X2723039Y-12743983D01*
X2723039Y-12743983D02*
X2703991Y-12734459D01*
X2703991Y-12734459D02*
X2694467Y-12724935D01*
X2932563Y-12543983D02*
X2951610Y-12543983D01*
X2951610Y-12543983D02*
X2970658Y-12553507D01*
X2970658Y-12553507D02*
X2980182Y-12563031D01*
X2980182Y-12563031D02*
X2989705Y-12582078D01*
X2989705Y-12582078D02*
X2999229Y-12620173D01*
X2999229Y-12620173D02*
X2999229Y-12667793D01*
X2999229Y-12667793D02*
X2989705Y-12705888D01*
X2989705Y-12705888D02*
X2980182Y-12724935D01*
X2980182Y-12724935D02*
X2970658Y-12734459D01*
X2970658Y-12734459D02*
X2951610Y-12743983D01*
X2951610Y-12743983D02*
X2932563Y-12743983D01*
X2932563Y-12743983D02*
X2913515Y-12734459D01*
X2913515Y-12734459D02*
X2903991Y-12724935D01*
X2903991Y-12724935D02*
X2894467Y-12705888D01*
X2894467Y-12705888D02*
X2884944Y-12667793D01*
X2884944Y-12667793D02*
X2884944Y-12620173D01*
X2884944Y-12620173D02*
X2894467Y-12582078D01*
X2894467Y-12582078D02*
X2903991Y-12563031D01*
X2903991Y-12563031D02*
X2913515Y-12553507D01*
X2913515Y-12553507D02*
X2932563Y-12543983D01*
X3123039Y-12543983D02*
X3142086Y-12543983D01*
X3142086Y-12543983D02*
X3161134Y-12553507D01*
X3161134Y-12553507D02*
X3170658Y-12563031D01*
X3170658Y-12563031D02*
X3180182Y-12582078D01*
X3180182Y-12582078D02*
X3189705Y-12620173D01*
X3189705Y-12620173D02*
X3189705Y-12667793D01*
X3189705Y-12667793D02*
X3180182Y-12705888D01*
X3180182Y-12705888D02*
X3170658Y-12724935D01*
X3170658Y-12724935D02*
X3161134Y-12734459D01*
X3161134Y-12734459D02*
X3142086Y-12743983D01*
X3142086Y-12743983D02*
X3123039Y-12743983D01*
X3123039Y-12743983D02*
X3103991Y-12734459D01*
X3103991Y-12734459D02*
X3094467Y-12724935D01*
X3094467Y-12724935D02*
X3084944Y-12705888D01*
X3084944Y-12705888D02*
X3075420Y-12667793D01*
X3075420Y-12667793D02*
X3075420Y-12620173D01*
X3075420Y-12620173D02*
X3084944Y-12582078D01*
X3084944Y-12582078D02*
X3094467Y-12563031D01*
X3094467Y-12563031D02*
X3103991Y-12553507D01*
X3103991Y-12553507D02*
X3123039Y-12543983D01*
X3275420Y-12743983D02*
X3275420Y-12610650D01*
X3275420Y-12629697D02*
X3284944Y-12620173D01*
X3284944Y-12620173D02*
X3303991Y-12610650D01*
X3303991Y-12610650D02*
X3332563Y-12610650D01*
X3332563Y-12610650D02*
X3351610Y-12620173D01*
X3351610Y-12620173D02*
X3361134Y-12639221D01*
X3361134Y-12639221D02*
X3361134Y-12743983D01*
X3361134Y-12639221D02*
X3370658Y-12620173D01*
X3370658Y-12620173D02*
X3389705Y-12610650D01*
X3389705Y-12610650D02*
X3418277Y-12610650D01*
X3418277Y-12610650D02*
X3437325Y-12620173D01*
X3437325Y-12620173D02*
X3446848Y-12639221D01*
X3446848Y-12639221D02*
X3446848Y-12743983D01*
X3542086Y-12743983D02*
X3542086Y-12610650D01*
X3542086Y-12629697D02*
X3551610Y-12620173D01*
X3551610Y-12620173D02*
X3570658Y-12610650D01*
X3570658Y-12610650D02*
X3599229Y-12610650D01*
X3599229Y-12610650D02*
X3618277Y-12620173D01*
X3618277Y-12620173D02*
X3627801Y-12639221D01*
X3627801Y-12639221D02*
X3627801Y-12743983D01*
X3627801Y-12639221D02*
X3637325Y-12620173D01*
X3637325Y-12620173D02*
X3656372Y-12610650D01*
X3656372Y-12610650D02*
X3684944Y-12610650D01*
X3684944Y-12610650D02*
X3703991Y-12620173D01*
X3703991Y-12620173D02*
X3713515Y-12639221D01*
X3713515Y-12639221D02*
X3713515Y-12743983D01*
X4103991Y-12534459D02*
X3932563Y-12791602D01*
X4361134Y-12543983D02*
X4380182Y-12543983D01*
X4380182Y-12543983D02*
X4399230Y-12553507D01*
X4399230Y-12553507D02*
X4408753Y-12563031D01*
X4408753Y-12563031D02*
X4418277Y-12582078D01*
X4418277Y-12582078D02*
X4427801Y-12620173D01*
X4427801Y-12620173D02*
X4427801Y-12667793D01*
X4427801Y-12667793D02*
X4418277Y-12705888D01*
X4418277Y-12705888D02*
X4408753Y-12724935D01*
X4408753Y-12724935D02*
X4399230Y-12734459D01*
X4399230Y-12734459D02*
X4380182Y-12743983D01*
X4380182Y-12743983D02*
X4361134Y-12743983D01*
X4361134Y-12743983D02*
X4342087Y-12734459D01*
X4342087Y-12734459D02*
X4332563Y-12724935D01*
X4332563Y-12724935D02*
X4323039Y-12705888D01*
X4323039Y-12705888D02*
X4313515Y-12667793D01*
X4313515Y-12667793D02*
X4313515Y-12620173D01*
X4313515Y-12620173D02*
X4323039Y-12582078D01*
X4323039Y-12582078D02*
X4332563Y-12563031D01*
X4332563Y-12563031D02*
X4342087Y-12553507D01*
X4342087Y-12553507D02*
X4361134Y-12543983D01*
X4513515Y-12724935D02*
X4523039Y-12734459D01*
X4523039Y-12734459D02*
X4513515Y-12743983D01*
X4513515Y-12743983D02*
X4503991Y-12734459D01*
X4503991Y-12734459D02*
X4513515Y-12724935D01*
X4513515Y-12724935D02*
X4513515Y-12743983D01*
X4646849Y-12543983D02*
X4665896Y-12543983D01*
X4665896Y-12543983D02*
X4684944Y-12553507D01*
X4684944Y-12553507D02*
X4694468Y-12563031D01*
X4694468Y-12563031D02*
X4703991Y-12582078D01*
X4703991Y-12582078D02*
X4713515Y-12620173D01*
X4713515Y-12620173D02*
X4713515Y-12667793D01*
X4713515Y-12667793D02*
X4703991Y-12705888D01*
X4703991Y-12705888D02*
X4694468Y-12724935D01*
X4694468Y-12724935D02*
X4684944Y-12734459D01*
X4684944Y-12734459D02*
X4665896Y-12743983D01*
X4665896Y-12743983D02*
X4646849Y-12743983D01*
X4646849Y-12743983D02*
X4627801Y-12734459D01*
X4627801Y-12734459D02*
X4618277Y-12724935D01*
X4618277Y-12724935D02*
X4608753Y-12705888D01*
X4608753Y-12705888D02*
X4599230Y-12667793D01*
X4599230Y-12667793D02*
X4599230Y-12620173D01*
X4599230Y-12620173D02*
X4608753Y-12582078D01*
X4608753Y-12582078D02*
X4618277Y-12563031D01*
X4618277Y-12563031D02*
X4627801Y-12553507D01*
X4627801Y-12553507D02*
X4646849Y-12543983D01*
X4894468Y-12543983D02*
X4799230Y-12543983D01*
X4799230Y-12543983D02*
X4789706Y-12639221D01*
X4789706Y-12639221D02*
X4799230Y-12629697D01*
X4799230Y-12629697D02*
X4818277Y-12620173D01*
X4818277Y-12620173D02*
X4865896Y-12620173D01*
X4865896Y-12620173D02*
X4884944Y-12629697D01*
X4884944Y-12629697D02*
X4894468Y-12639221D01*
X4894468Y-12639221D02*
X4903991Y-12658269D01*
X4903991Y-12658269D02*
X4903991Y-12705888D01*
X4903991Y-12705888D02*
X4894468Y-12724935D01*
X4894468Y-12724935D02*
X4884944Y-12734459D01*
X4884944Y-12734459D02*
X4865896Y-12743983D01*
X4865896Y-12743983D02*
X4818277Y-12743983D01*
X4818277Y-12743983D02*
X4799230Y-12734459D01*
X4799230Y-12734459D02*
X4789706Y-12724935D01*
X4999230Y-12743983D02*
X5037325Y-12743983D01*
X5037325Y-12743983D02*
X5056372Y-12734459D01*
X5056372Y-12734459D02*
X5065896Y-12724935D01*
X5065896Y-12724935D02*
X5084944Y-12696364D01*
X5084944Y-12696364D02*
X5094468Y-12658269D01*
X5094468Y-12658269D02*
X5094468Y-12582078D01*
X5094468Y-12582078D02*
X5084944Y-12563031D01*
X5084944Y-12563031D02*
X5075420Y-12553507D01*
X5075420Y-12553507D02*
X5056372Y-12543983D01*
X5056372Y-12543983D02*
X5018277Y-12543983D01*
X5018277Y-12543983D02*
X4999230Y-12553507D01*
X4999230Y-12553507D02*
X4989706Y-12563031D01*
X4989706Y-12563031D02*
X4980182Y-12582078D01*
X4980182Y-12582078D02*
X4980182Y-12629697D01*
X4980182Y-12629697D02*
X4989706Y-12648745D01*
X4989706Y-12648745D02*
X4999230Y-12658269D01*
X4999230Y-12658269D02*
X5018277Y-12667793D01*
X5018277Y-12667793D02*
X5056372Y-12667793D01*
X5056372Y-12667793D02*
X5075420Y-12658269D01*
X5075420Y-12658269D02*
X5084944Y-12648745D01*
X5084944Y-12648745D02*
X5094468Y-12629697D01*
X5284944Y-12743983D02*
X5170658Y-12743983D01*
X5227801Y-12743983D02*
X5227801Y-12543983D01*
X5227801Y-12543983D02*
X5208753Y-12572554D01*
X5208753Y-12572554D02*
X5189706Y-12591602D01*
X5189706Y-12591602D02*
X5170658Y-12601126D01*
X5361134Y-12543983D02*
X5361134Y-12582078D01*
X5437325Y-12543983D02*
X5437325Y-12582078D01*
X5732563Y-12820173D02*
X5723039Y-12810650D01*
X5723039Y-12810650D02*
X5703991Y-12782078D01*
X5703991Y-12782078D02*
X5694468Y-12763031D01*
X5694468Y-12763031D02*
X5684944Y-12734459D01*
X5684944Y-12734459D02*
X5675420Y-12686840D01*
X5675420Y-12686840D02*
X5675420Y-12648745D01*
X5675420Y-12648745D02*
X5684944Y-12601126D01*
X5684944Y-12601126D02*
X5694468Y-12572554D01*
X5694468Y-12572554D02*
X5703991Y-12553507D01*
X5703991Y-12553507D02*
X5723039Y-12524935D01*
X5723039Y-12524935D02*
X5732563Y-12515412D01*
X5799230Y-12563031D02*
X5808753Y-12553507D01*
X5808753Y-12553507D02*
X5827801Y-12543983D01*
X5827801Y-12543983D02*
X5875420Y-12543983D01*
X5875420Y-12543983D02*
X5894468Y-12553507D01*
X5894468Y-12553507D02*
X5903991Y-12563031D01*
X5903991Y-12563031D02*
X5913515Y-12582078D01*
X5913515Y-12582078D02*
X5913515Y-12601126D01*
X5913515Y-12601126D02*
X5903991Y-12629697D01*
X5903991Y-12629697D02*
X5789706Y-12743983D01*
X5789706Y-12743983D02*
X5913515Y-12743983D01*
X6151611Y-12743983D02*
X6151611Y-12543983D01*
X6237325Y-12743983D02*
X6237325Y-12639221D01*
X6237325Y-12639221D02*
X6227801Y-12620173D01*
X6227801Y-12620173D02*
X6208753Y-12610650D01*
X6208753Y-12610650D02*
X6180182Y-12610650D01*
X6180182Y-12610650D02*
X6161134Y-12620173D01*
X6161134Y-12620173D02*
X6151611Y-12629697D01*
X6361134Y-12743983D02*
X6342087Y-12734459D01*
X6342087Y-12734459D02*
X6332563Y-12724935D01*
X6332563Y-12724935D02*
X6323039Y-12705888D01*
X6323039Y-12705888D02*
X6323039Y-12648745D01*
X6323039Y-12648745D02*
X6332563Y-12629697D01*
X6332563Y-12629697D02*
X6342087Y-12620173D01*
X6342087Y-12620173D02*
X6361134Y-12610650D01*
X6361134Y-12610650D02*
X6389706Y-12610650D01*
X6389706Y-12610650D02*
X6408753Y-12620173D01*
X6408753Y-12620173D02*
X6418277Y-12629697D01*
X6418277Y-12629697D02*
X6427801Y-12648745D01*
X6427801Y-12648745D02*
X6427801Y-12705888D01*
X6427801Y-12705888D02*
X6418277Y-12724935D01*
X6418277Y-12724935D02*
X6408753Y-12734459D01*
X6408753Y-12734459D02*
X6389706Y-12743983D01*
X6389706Y-12743983D02*
X6361134Y-12743983D01*
X6542087Y-12743983D02*
X6523039Y-12734459D01*
X6523039Y-12734459D02*
X6513515Y-12715412D01*
X6513515Y-12715412D02*
X6513515Y-12543983D01*
X6694468Y-12734459D02*
X6675420Y-12743983D01*
X6675420Y-12743983D02*
X6637325Y-12743983D01*
X6637325Y-12743983D02*
X6618277Y-12734459D01*
X6618277Y-12734459D02*
X6608753Y-12715412D01*
X6608753Y-12715412D02*
X6608753Y-12639221D01*
X6608753Y-12639221D02*
X6618277Y-12620173D01*
X6618277Y-12620173D02*
X6637325Y-12610650D01*
X6637325Y-12610650D02*
X6675420Y-12610650D01*
X6675420Y-12610650D02*
X6694468Y-12620173D01*
X6694468Y-12620173D02*
X6703992Y-12639221D01*
X6703992Y-12639221D02*
X6703992Y-12658269D01*
X6703992Y-12658269D02*
X6608753Y-12677316D01*
X6780182Y-12734459D02*
X6799230Y-12743983D01*
X6799230Y-12743983D02*
X6837325Y-12743983D01*
X6837325Y-12743983D02*
X6856373Y-12734459D01*
X6856373Y-12734459D02*
X6865896Y-12715412D01*
X6865896Y-12715412D02*
X6865896Y-12705888D01*
X6865896Y-12705888D02*
X6856373Y-12686840D01*
X6856373Y-12686840D02*
X6837325Y-12677316D01*
X6837325Y-12677316D02*
X6808753Y-12677316D01*
X6808753Y-12677316D02*
X6789706Y-12667793D01*
X6789706Y-12667793D02*
X6780182Y-12648745D01*
X6780182Y-12648745D02*
X6780182Y-12639221D01*
X6780182Y-12639221D02*
X6789706Y-12620173D01*
X6789706Y-12620173D02*
X6808753Y-12610650D01*
X6808753Y-12610650D02*
X6837325Y-12610650D01*
X6837325Y-12610650D02*
X6856373Y-12620173D01*
X6932563Y-12820173D02*
X6942087Y-12810650D01*
X6942087Y-12810650D02*
X6961134Y-12782078D01*
X6961134Y-12782078D02*
X6970658Y-12763031D01*
X6970658Y-12763031D02*
X6980182Y-12734459D01*
X6980182Y-12734459D02*
X6989706Y-12686840D01*
X6989706Y-12686840D02*
X6989706Y-12648745D01*
X6989706Y-12648745D02*
X6980182Y-12601126D01*
X6980182Y-12601126D02*
X6970658Y-12572554D01*
X6970658Y-12572554D02*
X6961134Y-12553507D01*
X6961134Y-12553507D02*
X6942087Y-12524935D01*
X6942087Y-12524935D02*
X6932563Y-12515412D01*
X1957500Y-12822499D02*
X2157500Y-13022499D01*
X2157500Y-12822499D02*
X1957500Y-13022499D01*
X2057500Y-12822499D02*
X2057500Y-13022499D01*
X1957500Y-12922499D02*
X2157500Y-12922499D01*
X2399229Y-12813983D02*
X2523039Y-12813983D01*
X2523039Y-12813983D02*
X2456372Y-12890173D01*
X2456372Y-12890173D02*
X2484944Y-12890173D01*
X2484944Y-12890173D02*
X2503991Y-12899697D01*
X2503991Y-12899697D02*
X2513515Y-12909221D01*
X2513515Y-12909221D02*
X2523039Y-12928269D01*
X2523039Y-12928269D02*
X2523039Y-12975888D01*
X2523039Y-12975888D02*
X2513515Y-12994935D01*
X2513515Y-12994935D02*
X2503991Y-13004459D01*
X2503991Y-13004459D02*
X2484944Y-13013983D01*
X2484944Y-13013983D02*
X2427801Y-13013983D01*
X2427801Y-13013983D02*
X2408753Y-13004459D01*
X2408753Y-13004459D02*
X2399229Y-12994935D01*
X2608753Y-12994935D02*
X2618277Y-13004459D01*
X2618277Y-13004459D02*
X2608753Y-13013983D01*
X2608753Y-13013983D02*
X2599229Y-13004459D01*
X2599229Y-13004459D02*
X2608753Y-12994935D01*
X2608753Y-12994935D02*
X2608753Y-13013983D01*
X2694467Y-12833031D02*
X2703991Y-12823507D01*
X2703991Y-12823507D02*
X2723039Y-12813983D01*
X2723039Y-12813983D02*
X2770658Y-12813983D01*
X2770658Y-12813983D02*
X2789706Y-12823507D01*
X2789706Y-12823507D02*
X2799229Y-12833031D01*
X2799229Y-12833031D02*
X2808753Y-12852078D01*
X2808753Y-12852078D02*
X2808753Y-12871126D01*
X2808753Y-12871126D02*
X2799229Y-12899697D01*
X2799229Y-12899697D02*
X2684944Y-13013983D01*
X2684944Y-13013983D02*
X2808753Y-13013983D01*
X2932563Y-12813983D02*
X2951610Y-12813983D01*
X2951610Y-12813983D02*
X2970658Y-12823507D01*
X2970658Y-12823507D02*
X2980182Y-12833031D01*
X2980182Y-12833031D02*
X2989705Y-12852078D01*
X2989705Y-12852078D02*
X2999229Y-12890173D01*
X2999229Y-12890173D02*
X2999229Y-12937793D01*
X2999229Y-12937793D02*
X2989705Y-12975888D01*
X2989705Y-12975888D02*
X2980182Y-12994935D01*
X2980182Y-12994935D02*
X2970658Y-13004459D01*
X2970658Y-13004459D02*
X2951610Y-13013983D01*
X2951610Y-13013983D02*
X2932563Y-13013983D01*
X2932563Y-13013983D02*
X2913515Y-13004459D01*
X2913515Y-13004459D02*
X2903991Y-12994935D01*
X2903991Y-12994935D02*
X2894467Y-12975888D01*
X2894467Y-12975888D02*
X2884944Y-12937793D01*
X2884944Y-12937793D02*
X2884944Y-12890173D01*
X2884944Y-12890173D02*
X2894467Y-12852078D01*
X2894467Y-12852078D02*
X2903991Y-12833031D01*
X2903991Y-12833031D02*
X2913515Y-12823507D01*
X2913515Y-12823507D02*
X2932563Y-12813983D01*
X3123039Y-12813983D02*
X3142086Y-12813983D01*
X3142086Y-12813983D02*
X3161134Y-12823507D01*
X3161134Y-12823507D02*
X3170658Y-12833031D01*
X3170658Y-12833031D02*
X3180182Y-12852078D01*
X3180182Y-12852078D02*
X3189705Y-12890173D01*
X3189705Y-12890173D02*
X3189705Y-12937793D01*
X3189705Y-12937793D02*
X3180182Y-12975888D01*
X3180182Y-12975888D02*
X3170658Y-12994935D01*
X3170658Y-12994935D02*
X3161134Y-13004459D01*
X3161134Y-13004459D02*
X3142086Y-13013983D01*
X3142086Y-13013983D02*
X3123039Y-13013983D01*
X3123039Y-13013983D02*
X3103991Y-13004459D01*
X3103991Y-13004459D02*
X3094467Y-12994935D01*
X3094467Y-12994935D02*
X3084944Y-12975888D01*
X3084944Y-12975888D02*
X3075420Y-12937793D01*
X3075420Y-12937793D02*
X3075420Y-12890173D01*
X3075420Y-12890173D02*
X3084944Y-12852078D01*
X3084944Y-12852078D02*
X3094467Y-12833031D01*
X3094467Y-12833031D02*
X3103991Y-12823507D01*
X3103991Y-12823507D02*
X3123039Y-12813983D01*
X3275420Y-13013983D02*
X3275420Y-12880650D01*
X3275420Y-12899697D02*
X3284944Y-12890173D01*
X3284944Y-12890173D02*
X3303991Y-12880650D01*
X3303991Y-12880650D02*
X3332563Y-12880650D01*
X3332563Y-12880650D02*
X3351610Y-12890173D01*
X3351610Y-12890173D02*
X3361134Y-12909221D01*
X3361134Y-12909221D02*
X3361134Y-13013983D01*
X3361134Y-12909221D02*
X3370658Y-12890173D01*
X3370658Y-12890173D02*
X3389705Y-12880650D01*
X3389705Y-12880650D02*
X3418277Y-12880650D01*
X3418277Y-12880650D02*
X3437325Y-12890173D01*
X3437325Y-12890173D02*
X3446848Y-12909221D01*
X3446848Y-12909221D02*
X3446848Y-13013983D01*
X3542086Y-13013983D02*
X3542086Y-12880650D01*
X3542086Y-12899697D02*
X3551610Y-12890173D01*
X3551610Y-12890173D02*
X3570658Y-12880650D01*
X3570658Y-12880650D02*
X3599229Y-12880650D01*
X3599229Y-12880650D02*
X3618277Y-12890173D01*
X3618277Y-12890173D02*
X3627801Y-12909221D01*
X3627801Y-12909221D02*
X3627801Y-13013983D01*
X3627801Y-12909221D02*
X3637325Y-12890173D01*
X3637325Y-12890173D02*
X3656372Y-12880650D01*
X3656372Y-12880650D02*
X3684944Y-12880650D01*
X3684944Y-12880650D02*
X3703991Y-12890173D01*
X3703991Y-12890173D02*
X3713515Y-12909221D01*
X3713515Y-12909221D02*
X3713515Y-13013983D01*
X4103991Y-12804459D02*
X3932563Y-13061602D01*
X4361134Y-12813983D02*
X4380182Y-12813983D01*
X4380182Y-12813983D02*
X4399230Y-12823507D01*
X4399230Y-12823507D02*
X4408753Y-12833031D01*
X4408753Y-12833031D02*
X4418277Y-12852078D01*
X4418277Y-12852078D02*
X4427801Y-12890173D01*
X4427801Y-12890173D02*
X4427801Y-12937793D01*
X4427801Y-12937793D02*
X4418277Y-12975888D01*
X4418277Y-12975888D02*
X4408753Y-12994935D01*
X4408753Y-12994935D02*
X4399230Y-13004459D01*
X4399230Y-13004459D02*
X4380182Y-13013983D01*
X4380182Y-13013983D02*
X4361134Y-13013983D01*
X4361134Y-13013983D02*
X4342087Y-13004459D01*
X4342087Y-13004459D02*
X4332563Y-12994935D01*
X4332563Y-12994935D02*
X4323039Y-12975888D01*
X4323039Y-12975888D02*
X4313515Y-12937793D01*
X4313515Y-12937793D02*
X4313515Y-12890173D01*
X4313515Y-12890173D02*
X4323039Y-12852078D01*
X4323039Y-12852078D02*
X4332563Y-12833031D01*
X4332563Y-12833031D02*
X4342087Y-12823507D01*
X4342087Y-12823507D02*
X4361134Y-12813983D01*
X4513515Y-12994935D02*
X4523039Y-13004459D01*
X4523039Y-13004459D02*
X4513515Y-13013983D01*
X4513515Y-13013983D02*
X4503991Y-13004459D01*
X4503991Y-13004459D02*
X4513515Y-12994935D01*
X4513515Y-12994935D02*
X4513515Y-13013983D01*
X4713515Y-13013983D02*
X4599230Y-13013983D01*
X4656372Y-13013983D02*
X4656372Y-12813983D01*
X4656372Y-12813983D02*
X4637325Y-12842554D01*
X4637325Y-12842554D02*
X4618277Y-12861602D01*
X4618277Y-12861602D02*
X4599230Y-12871126D01*
X4789706Y-12833031D02*
X4799230Y-12823507D01*
X4799230Y-12823507D02*
X4818277Y-12813983D01*
X4818277Y-12813983D02*
X4865896Y-12813983D01*
X4865896Y-12813983D02*
X4884944Y-12823507D01*
X4884944Y-12823507D02*
X4894468Y-12833031D01*
X4894468Y-12833031D02*
X4903991Y-12852078D01*
X4903991Y-12852078D02*
X4903991Y-12871126D01*
X4903991Y-12871126D02*
X4894468Y-12899697D01*
X4894468Y-12899697D02*
X4780182Y-13013983D01*
X4780182Y-13013983D02*
X4903991Y-13013983D01*
X5075420Y-12813983D02*
X5037325Y-12813983D01*
X5037325Y-12813983D02*
X5018277Y-12823507D01*
X5018277Y-12823507D02*
X5008753Y-12833031D01*
X5008753Y-12833031D02*
X4989706Y-12861602D01*
X4989706Y-12861602D02*
X4980182Y-12899697D01*
X4980182Y-12899697D02*
X4980182Y-12975888D01*
X4980182Y-12975888D02*
X4989706Y-12994935D01*
X4989706Y-12994935D02*
X4999230Y-13004459D01*
X4999230Y-13004459D02*
X5018277Y-13013983D01*
X5018277Y-13013983D02*
X5056372Y-13013983D01*
X5056372Y-13013983D02*
X5075420Y-13004459D01*
X5075420Y-13004459D02*
X5084944Y-12994935D01*
X5084944Y-12994935D02*
X5094468Y-12975888D01*
X5094468Y-12975888D02*
X5094468Y-12928269D01*
X5094468Y-12928269D02*
X5084944Y-12909221D01*
X5084944Y-12909221D02*
X5075420Y-12899697D01*
X5075420Y-12899697D02*
X5056372Y-12890173D01*
X5056372Y-12890173D02*
X5018277Y-12890173D01*
X5018277Y-12890173D02*
X4999230Y-12899697D01*
X4999230Y-12899697D02*
X4989706Y-12909221D01*
X4989706Y-12909221D02*
X4980182Y-12928269D01*
X5218277Y-12813983D02*
X5237325Y-12813983D01*
X5237325Y-12813983D02*
X5256372Y-12823507D01*
X5256372Y-12823507D02*
X5265896Y-12833031D01*
X5265896Y-12833031D02*
X5275420Y-12852078D01*
X5275420Y-12852078D02*
X5284944Y-12890173D01*
X5284944Y-12890173D02*
X5284944Y-12937793D01*
X5284944Y-12937793D02*
X5275420Y-12975888D01*
X5275420Y-12975888D02*
X5265896Y-12994935D01*
X5265896Y-12994935D02*
X5256372Y-13004459D01*
X5256372Y-13004459D02*
X5237325Y-13013983D01*
X5237325Y-13013983D02*
X5218277Y-13013983D01*
X5218277Y-13013983D02*
X5199230Y-13004459D01*
X5199230Y-13004459D02*
X5189706Y-12994935D01*
X5189706Y-12994935D02*
X5180182Y-12975888D01*
X5180182Y-12975888D02*
X5170658Y-12937793D01*
X5170658Y-12937793D02*
X5170658Y-12890173D01*
X5170658Y-12890173D02*
X5180182Y-12852078D01*
X5180182Y-12852078D02*
X5189706Y-12833031D01*
X5189706Y-12833031D02*
X5199230Y-12823507D01*
X5199230Y-12823507D02*
X5218277Y-12813983D01*
X5361134Y-12813983D02*
X5361134Y-12852078D01*
X5437325Y-12813983D02*
X5437325Y-12852078D01*
X5732563Y-13090173D02*
X5723039Y-13080650D01*
X5723039Y-13080650D02*
X5703991Y-13052078D01*
X5703991Y-13052078D02*
X5694468Y-13033031D01*
X5694468Y-13033031D02*
X5684944Y-13004459D01*
X5684944Y-13004459D02*
X5675420Y-12956840D01*
X5675420Y-12956840D02*
X5675420Y-12918745D01*
X5675420Y-12918745D02*
X5684944Y-12871126D01*
X5684944Y-12871126D02*
X5694468Y-12842554D01*
X5694468Y-12842554D02*
X5703991Y-12823507D01*
X5703991Y-12823507D02*
X5723039Y-12794935D01*
X5723039Y-12794935D02*
X5732563Y-12785412D01*
X5789706Y-12813983D02*
X5913515Y-12813983D01*
X5913515Y-12813983D02*
X5846849Y-12890173D01*
X5846849Y-12890173D02*
X5875420Y-12890173D01*
X5875420Y-12890173D02*
X5894468Y-12899697D01*
X5894468Y-12899697D02*
X5903991Y-12909221D01*
X5903991Y-12909221D02*
X5913515Y-12928269D01*
X5913515Y-12928269D02*
X5913515Y-12975888D01*
X5913515Y-12975888D02*
X5903991Y-12994935D01*
X5903991Y-12994935D02*
X5894468Y-13004459D01*
X5894468Y-13004459D02*
X5875420Y-13013983D01*
X5875420Y-13013983D02*
X5818277Y-13013983D01*
X5818277Y-13013983D02*
X5799230Y-13004459D01*
X5799230Y-13004459D02*
X5789706Y-12994935D01*
X6151611Y-13013983D02*
X6151611Y-12813983D01*
X6237325Y-13013983D02*
X6237325Y-12909221D01*
X6237325Y-12909221D02*
X6227801Y-12890173D01*
X6227801Y-12890173D02*
X6208753Y-12880650D01*
X6208753Y-12880650D02*
X6180182Y-12880650D01*
X6180182Y-12880650D02*
X6161134Y-12890173D01*
X6161134Y-12890173D02*
X6151611Y-12899697D01*
X6361134Y-13013983D02*
X6342087Y-13004459D01*
X6342087Y-13004459D02*
X6332563Y-12994935D01*
X6332563Y-12994935D02*
X6323039Y-12975888D01*
X6323039Y-12975888D02*
X6323039Y-12918745D01*
X6323039Y-12918745D02*
X6332563Y-12899697D01*
X6332563Y-12899697D02*
X6342087Y-12890173D01*
X6342087Y-12890173D02*
X6361134Y-12880650D01*
X6361134Y-12880650D02*
X6389706Y-12880650D01*
X6389706Y-12880650D02*
X6408753Y-12890173D01*
X6408753Y-12890173D02*
X6418277Y-12899697D01*
X6418277Y-12899697D02*
X6427801Y-12918745D01*
X6427801Y-12918745D02*
X6427801Y-12975888D01*
X6427801Y-12975888D02*
X6418277Y-12994935D01*
X6418277Y-12994935D02*
X6408753Y-13004459D01*
X6408753Y-13004459D02*
X6389706Y-13013983D01*
X6389706Y-13013983D02*
X6361134Y-13013983D01*
X6542087Y-13013983D02*
X6523039Y-13004459D01*
X6523039Y-13004459D02*
X6513515Y-12985412D01*
X6513515Y-12985412D02*
X6513515Y-12813983D01*
X6694468Y-13004459D02*
X6675420Y-13013983D01*
X6675420Y-13013983D02*
X6637325Y-13013983D01*
X6637325Y-13013983D02*
X6618277Y-13004459D01*
X6618277Y-13004459D02*
X6608753Y-12985412D01*
X6608753Y-12985412D02*
X6608753Y-12909221D01*
X6608753Y-12909221D02*
X6618277Y-12890173D01*
X6618277Y-12890173D02*
X6637325Y-12880650D01*
X6637325Y-12880650D02*
X6675420Y-12880650D01*
X6675420Y-12880650D02*
X6694468Y-12890173D01*
X6694468Y-12890173D02*
X6703992Y-12909221D01*
X6703992Y-12909221D02*
X6703992Y-12928269D01*
X6703992Y-12928269D02*
X6608753Y-12947316D01*
X6780182Y-13004459D02*
X6799230Y-13013983D01*
X6799230Y-13013983D02*
X6837325Y-13013983D01*
X6837325Y-13013983D02*
X6856373Y-13004459D01*
X6856373Y-13004459D02*
X6865896Y-12985412D01*
X6865896Y-12985412D02*
X6865896Y-12975888D01*
X6865896Y-12975888D02*
X6856373Y-12956840D01*
X6856373Y-12956840D02*
X6837325Y-12947316D01*
X6837325Y-12947316D02*
X6808753Y-12947316D01*
X6808753Y-12947316D02*
X6789706Y-12937793D01*
X6789706Y-12937793D02*
X6780182Y-12918745D01*
X6780182Y-12918745D02*
X6780182Y-12909221D01*
X6780182Y-12909221D02*
X6789706Y-12890173D01*
X6789706Y-12890173D02*
X6808753Y-12880650D01*
X6808753Y-12880650D02*
X6837325Y-12880650D01*
X6837325Y-12880650D02*
X6856373Y-12890173D01*
X6932563Y-13090173D02*
X6942087Y-13080650D01*
X6942087Y-13080650D02*
X6961134Y-13052078D01*
X6961134Y-13052078D02*
X6970658Y-13033031D01*
X6970658Y-13033031D02*
X6980182Y-13004459D01*
X6980182Y-13004459D02*
X6989706Y-12956840D01*
X6989706Y-12956840D02*
X6989706Y-12918745D01*
X6989706Y-12918745D02*
X6980182Y-12871126D01*
X6980182Y-12871126D02*
X6970658Y-12842554D01*
X6970658Y-12842554D02*
X6961134Y-12823507D01*
X6961134Y-12823507D02*
X6942087Y-12794935D01*
X6942087Y-12794935D02*
X6932563Y-12785412D01*
M02*
