M48
; DRILL file {KiCad 9.0.0} date 2025-03-23T20:14:32+0100
; FORMAT={-:-/ absolute / metric / decimal}
; #@! TF.CreationDate,2025-03-23T20:14:32+01:00
; #@! TF.GenerationSoftware,Kicad,Pcbnew,9.0.0
; #@! TF.FileFunction,Plated,1,2,PTH
FMAT,2
METRIC
; #@! TA.AperFunction,Plated,PTH,ComponentDrill
T1C0.200
; #@! TA.AperFunction,Plated,PTH,ViaDrill
T2C0.300
; #@! TA.AperFunction,Plated,PTH,ComponentDrill
T3C0.600
; #@! TA.AperFunction,Plated,PTH,ComponentDrill
T4C0.750
; #@! TA.AperFunction,Plated,PTH,ComponentDrill
T5C0.900
; #@! TA.AperFunction,Plated,PTH,ComponentDrill
T6C1.500
; #@! TA.AperFunction,Plated,PTH,ComponentDrill
T7C3.200
%
G90
G05
T1
X64.46Y-63.55
X64.46Y-64.65
X65.01Y-63.0
X65.01Y-64.1
X65.01Y-65.2
X65.56Y-63.55
X65.56Y-64.65
X66.11Y-63.0
X66.11Y-64.1
X66.11Y-65.2
X66.66Y-63.55
X66.66Y-64.65
T2
X26.6Y-54.4
X31.1Y-53.4
X38.6Y-86.9
X39.1Y-39.9
X41.6Y-64.9
X43.1Y-74.4
X43.216Y-70.823
X45.6Y-60.4
X46.6Y-77.9
X47.1Y-66.4
X48.1Y-61.9
X49.6Y-57.9
X51.1Y-63.4
X51.13Y-71.94
X52.6Y-60.4
X53.1Y-64.4
X53.6Y-60.9
X53.6Y-69.4
X54.6Y-92.4
X55.1Y-86.4
X55.644Y-72.856
X58.85Y-24.65
X59.1Y-42.4
X68.1Y-74.4
X69.1Y-95.9
X70.1Y-72.9
X71.6Y-84.9
X71.6Y-96.9
X72.1Y-94.9
X73.1Y-41.9
X73.6Y-82.9
X74.1Y-37.4
X75.6Y-75.9
X75.6Y-81.4
X76.432Y-62.623
X77.6Y-83.9
X78.1Y-63.9
X78.1Y-64.9
X79.1Y-58.4
X79.6Y-81.4
X80.1Y-29.9
X80.1Y-63.9
X80.1Y-64.9
X80.6Y-32.9
X81.1Y-27.4
X82.1Y-50.4
X82.6Y-34.9
X82.6Y-69.4
X82.6Y-91.9
X83.1Y-55.4
X83.6Y-94.4
X84.1Y-75.9
X84.6Y-31.9
X85.1Y-38.9
X85.1Y-60.4
X85.1Y-64.9
X85.6Y-66.9
X86.1Y-39.9
X86.1Y-91.9
X87.1Y-31.9
X88.1Y-40.3
X88.6Y-29.4
X89.1Y-41.9
X90.002Y-41.1
X94.1Y-43.4
X97.1Y-69.9
X97.6Y-41.4
X97.6Y-43.9
X99.6Y-72.4
X101.6Y-52.4
X101.6Y-55.4
T4
X95.1Y-80.4
X96.514Y-81.814
T5
X91.47Y-90.77
X92.834Y-89.307
X94.198Y-87.845
T6
X90.038Y-92.306
X95.63Y-86.309
T7
X31.1Y-79.9
X53.6Y-27.9
X82.1Y-96.9
T3
X86.961Y-35.93G85X87.739Y-35.152
G05
X90.023Y-32.868G85X90.588Y-32.302
G05
X93.07Y-42.039G85X93.848Y-41.261
G05
X96.132Y-38.977G85X96.698Y-38.412
G05
M30
